<svg viewBox="0 0 472 406" xmlns="http://www.w3.org/2000/svg"><path d="M42.5842 368.79C12.472 347.398 12.4719 69.2943 42.5842 41.7896C72.6964 14.285 396.403 11.2288 426.515 41.7896C456.627 72.3505 464.155 344.342 426.515 368.79C388.875 393.239 72.6963 390.183 42.5842 368.79Z" stroke="currentColor" stroke-width="40" stroke-linecap="round"/><path fill-rule="evenodd" clip-rule="evenodd" d="M234.14 128.747C223.972 128.747 210.351 132.132 210.351 132.132L203.608 118.217L178.134 124.798L156.593 132.132C156.593 132.132 146.408 149.426 141.047 161.092C135.817 172.471 133.283 179.069 129.434 190.991C129.126 191.942 128.828 192.862 128.538 193.756L128.538 193.757C124.983 204.725 122.706 211.75 121.005 223.9C118.713 240.262 121.005 266.21 121.005 266.21L147.603 280.69L178.134 294.606L190.309 277.305L171.016 266.21L183.978 257.936C183.978 257.936 197.27 265.751 208.103 268.467C221.983 271.947 230.372 272.478 244.629 271.288C254.736 270.444 260.351 269.011 270.103 266.21C279.026 263.648 292.392 257.936 292.392 257.936L302.882 266.21L280.779 277.305L292.392 294.606L326.108 280.69L351.208 263.39C351.208 263.39 352.889 239.229 351.208 223.9C349.777 210.858 348.293 203.536 344.464 190.991C340.784 178.93 337.886 172.386 332.289 161.092C326.444 149.297 315.057 132.132 315.057 132.132L292.392 124.798L266.918 118.217L260.175 132.132C260.175 132.132 243.429 128.747 234.14 128.747ZM219.972 213.427C219.972 227.264 210.124 238.482 197.975 238.482C185.827 238.482 175.978 227.264 175.978 213.427C175.978 199.589 185.827 188.371 197.975 188.371C210.124 188.371 219.972 199.589 219.972 213.427ZM277.966 238.482C290.114 238.482 299.963 227.264 299.963 213.427C299.963 199.589 290.114 188.371 277.966 188.371C265.817 188.371 255.969 199.589 255.969 213.427C255.969 227.264 265.817 238.482 277.966 238.482Z"/></svg>