<svg viewBox="0 0 472 406" fill="none" xmlns="http://www.w3.org/2000/svg"><path d="M42.5842 368.79C12.472 347.398 12.4719 69.2943 42.5842 41.7896C72.6964 14.285 396.403 11.2288 426.515 41.7896C456.627 72.3505 464.155 344.342 426.515 368.79C388.875 393.239 72.6963 390.183 42.5842 368.79Z" stroke="currentColor" stroke-width="40" stroke-linecap="round"/><path d="M110.68 98.1633C91.1067 116.041 91.1068 296.809 110.68 310.714C130.253 324.619 335.769 326.605 360.235 310.714C384.701 294.822 379.808 118.028 360.235 98.1633M110.68 98.1633C130.253 80.2852 340.662 78.2987 360.235 98.1633M110.68 98.1633L237.5 234L360.235 98.1633" stroke="currentColor" stroke-width="25" stroke-linecap="round"/></svg>