<svg viewBox="0 0 472 406" fill="none" xmlns="http://www.w3.org/2000/svg"><path d="M42.5842 368.79C12.472 347.398 12.4719 69.2943 42.5842 41.7896C72.6964 14.285 396.403 11.2288 426.515 41.7896C456.627 72.3505 464.155 344.342 426.515 368.79C388.875 393.239 72.6963 390.183 42.5842 368.79Z" stroke="#5E7181" stroke-width="40" stroke-linecap="round"/><path d="M176.978 317.657V282.579M176.978 282.579C176.978 282.579 153.846 297.249 136.984 286.588C124.51 278.702 125.648 267.835 120.986 259.528C116.325 251.222 105.614 242.427 104.061 241.648C102.507 240.87 116.584 250.919 120.986 253.515C125.388 256.111 130.947 276.95 140.983 282.579C155.888 290.939 176.978 282.579 176.978 282.579ZM176.978 282.579C176.978 282.579 178.343 260.418 181.978 253.515C185.245 247.311 195.216 225.815 204.538 225.815C213.861 225.815 175.731 219.254 162.98 211.422C153.649 205.692 149.349 197.644 145.983 190.376C142.616 183.108 141.081 168.669 147.566 151.837C152.209 139.788 162.98 125.101 162.98 125.101C162.98 125.101 161.38 115.21 161.032 108.229C160.628 100.093 164.399 87.2037 166.989 88.242C169.578 89.2802 199.975 108.229 199.975 108.229C199.975 108.229 217.457 102.664 231.988 102.518C247.52 102.363 271.351 108.229 271.351 108.229C271.351 108.229 294.14 89.5398 296.47 88.242C298.801 86.9441 305.527 99.7238 309.159 108.229C311.855 114.54 314.08 125.101 314.08 125.101C314.08 125.101 328.056 139.951 332.466 151.837C338.741 168.749 337.66 186.151 334.957 192.38C332.253 198.61 319.47 212.54 311.96 216.433C304.45 220.327 266.948 225.815 271.351 225.815C275.753 225.815 292.845 244.279 296.47 250.508C300.096 256.738 301.961 282.579 301.961 282.579V317.657" stroke="#5E7181" stroke-width="30" stroke-linecap="round"/></svg>