<svg viewBox="0 0 472 406" fill="none" xmlns="http://www.w3.org/2000/svg"><path d="M42.5842 368.79C12.472 347.398 12.4719 69.2943 42.5842 41.7896C72.6964 14.285 396.403 11.2288 426.515 41.7896C456.627 72.3505 464.155 344.342 426.515 368.79C388.875 393.239 72.6963 390.183 42.5842 368.79Z" stroke="currentColor" stroke-width="40" stroke-linecap="round"/><path d="M91.2758 257.826L373.381 257.826C373.381 257.826 338.771 318.369 334.067 326.693C329.363 335.016 131.446 332.071 129.094 326.693C126.742 321.315 91.2758 257.826 91.2758 257.826Z" fill="currentColor" fill-opacity="0.2"/><path d="M274.591 75.6838L130.438 328.036C130.438 328.036 94.8201 266.88 92.468 258.143C90.116 249.407 187.898 79.7167 195.962 77.7002C204.027 75.6836 274.591 75.6838 274.591 75.6838Z" fill="currentColor" fill-opacity="0.5"/><path d="M333.731 327.363L195.627 77.3644C195.627 77.3644 266.192 73.6684 273.92 75.6844C281.648 77.7003 375.062 250.415 373.046 258.815C371.03 267.216 333.731 327.363 333.731 327.363Z" fill="currentColor" fill-opacity="0.7"/></svg>