<svg viewBox="0 0 472 406" fill="none" xmlns="http://www.w3.org/2000/svg"><path d="M42.5842 368.79C12.472 347.398 12.4719 69.2943 42.5842 41.7896C72.6964 14.285 396.403 11.2288 426.515 41.7896C456.627 72.3505 464.155 344.342 426.515 368.79C388.875 393.239 72.6963 390.183 42.5842 368.79Z" stroke="currentColor" stroke-width="40" stroke-linecap="round"/><path d="M148.641 166.323C148.641 197.864 145.982 229.142 145.982 260.644C145.982 276.766 147.312 293.056 147.312 308.915" stroke="currentColor" stroke-width="40" stroke-linecap="round"/><path d="M146.104 97.1321C146.485 93.6954 154.081 92.9463 154.081 96.4658C154.081 100.439 155.675 105.128 150.757 105.128C142.757 105.128 146.093 91.7796 151.422 102.463" stroke="currentColor" stroke-width="40" stroke-linecap="round"/><path d="M231.973 308.637C231.973 308.637 231.973 245.427 231.973 204.925M231.973 204.925C231.973 190.107 231.973 181.8 231.973 166.982M231.973 204.925C231.79 187.894 241.492 175.621 261.969 166.982C282.753 158.213 303.152 157.959 323.723 166.982C343.707 175.747 351.954 186.586 351.954 204.925C351.954 223.264 351.954 308.637 351.954 308.637" stroke="currentColor" stroke-width="40" stroke-linecap="round"/></svg>