<svg viewBox="0 0 472 406" fill="none" xmlns="http://www.w3.org/2000/svg"><path d="M42.5842 368.79C12.472 347.398 12.4719 69.2943 42.5842 41.7896C72.6964 14.285 396.403 11.2288 426.515 41.7896C456.627 72.3505 464.155 344.342 426.515 368.79C388.875 393.239 72.6963 390.183 42.5842 368.79Z" stroke="currentColor" stroke-width="40" stroke-linecap="round"/><path d="M162.33 156.5L227.098 291.848L284.393 163.973V271.089L257.821 296H357.464L333.384 271.089V132.42L357.464 110H284.393L240.384 220.438L190.562 110H119.152L145.723 141.554V258.634L115 296H193.884L162.33 258.634V156.5Z" fill="currentColor" stroke="currentColor" stroke-width="6.53894"/><path fill-rule="evenodd" clip-rule="evenodd" d="M434 265.27V295.402C430.262 296.001 426.317 296.277 422.104 296.265C385.009 296.157 362.921 256.945 364.041 219.866C365.159 182.835 387.99 147.065 431.271 150.191C432.198 150.258 433.107 150.343 434 150.444V162.317C431.391 160.714 428.261 159.779 424.507 159.779C398.226 159.779 398.226 205.618 398.226 205.618H434V210.699H398.879C398.879 210.699 397.859 220.468 398.879 226.589C402.183 246.435 413.547 260.977 433.105 265.094C433.404 265.157 433.702 265.215 434 265.27Z" fill="currentColor"/></svg>