<svg viewBox="0 0 472 406" fill="none" xmlns="http://www.w3.org/2000/svg"><path d="M42.5842 368.79C12.472 347.398 12.4719 69.2943 42.5842 41.7896C72.6964 14.285 396.403 11.2288 426.515 41.7896C456.627 72.3505 464.155 344.342 426.515 368.79C388.875 393.239 72.6963 390.183 42.5842 368.79Z" stroke="currentColor" stroke-width="40" stroke-linecap="round"/><path fill-rule="evenodd" clip-rule="evenodd" d="M152.294 312.576H178.337C180.519 312.576 182.362 310.959 182.646 308.797L192.518 233.775C192.802 231.612 194.624 229.995 196.806 229.995H254.733C271.684 229.995 296.49 219.221 312.105 199.137C324.558 183.118 328.688 170.31 329.055 150.023C329.375 132.343 326.616 119.796 318.21 106.47C328.052 111.308 337.35 118.353 345.137 128.291C358.346 145.15 362.475 159.034 362.087 180.447C361.72 200.734 357.591 213.542 345.137 229.561C329.522 249.645 304.716 260.42 287.765 260.42H229.838C227.656 260.42 225.834 262.037 225.55 264.199L215.679 339.221C215.394 341.383 213.551 343 211.369 343H153.21C150.582 343 148.556 340.686 148.902 338.081L152.294 312.576Z" fill="currentColor"/><path d="M173.122 309.099H114.963C112.335 309.099 110.308 306.784 110.654 304.179L142.108 67.6446C142.39 65.5255 144.163 63.9267 146.3 63.8778C163.089 63.4942 231.999 62.0621 249.517 63.9653C269.51 66.1373 291.248 74.4271 306.889 94.3897C320.098 111.248 324.227 125.132 323.84 146.546C323.472 166.833 319.343 179.641 306.889 195.659C291.274 215.744 266.468 226.518 249.517 226.518H191.59C189.409 226.518 187.587 228.135 187.302 230.298L177.431 305.319C177.146 307.482 175.303 309.099 173.122 309.099Z" fill="currentColor"/></svg>