<svg width="472" height="406" viewBox="0 0 472 406" fill="none" xmlns="http://www.w3.org/2000/svg">
<path d="M42.5842 368.79C12.472 347.398 12.4719 69.2943 42.5842 41.7896C72.6964 14.285 396.403 11.2288 426.515 41.7896C456.627 72.3505 464.155 344.342 426.515 368.79C388.875 393.239 72.6963 390.183 42.5842 368.79Z" stroke="#5E7181" stroke-width="40" stroke-linecap="round"/>
<circle cx="236.5" cy="203.5" r="141.5" fill="#5E7181"/>
<path d="M164.91 257.68L176.09 263.271L187.271 240.91L176.09 235.32L164.91 257.68ZM158.5 234.5L147.377 240.203H147.377L158.5 234.5ZM153.413 219L141.162 221.485L153.413 219ZM152.143 203.979L164.635 204.439L152.143 203.979ZM153.413 184.922L165.634 187.548V187.548L153.413 184.922ZM159.131 168.405L147.6 163.579L159.131 168.405ZM168.659 151.888L178.831 159.153L168.659 151.888ZM176.282 142.995L167.444 134.156L176.282 142.995ZM188.352 132.831L182.03 122.048L188.352 132.831ZM201.058 125.208L207.044 136.181L201.058 125.208ZM216.939 118.22L221.142 129.992L216.939 118.22ZM237.901 115.044V102.544V115.044ZM256.324 116.314L258.56 104.016L256.324 116.314ZM272.205 121.396L277.013 109.858L272.205 121.396ZM287.451 129.654L278.671 138.551L287.451 129.654ZM298.885 140.454L289.058 148.178L298.885 140.454ZM310.955 156.335L300.046 162.438L310.955 156.335ZM320.484 181.11L308.189 183.367L320.484 181.11ZM322.39 205.885L334.835 207.055L322.39 205.885ZM317.308 228.754L305.495 224.668L317.308 228.754ZM305.238 250.987L295.065 243.723L305.238 250.987ZM263.312 280.209L259.966 268.165L263.312 280.209ZM240.442 284.02L240.495 296.52L240.442 284.02ZM223.29 277.033L233.412 269.697L223.29 277.033ZM215.032 189.368L224.44 197.599L215.032 189.368ZM221.385 189.368L214.191 199.591L221.385 189.368ZM223.29 209.061L210.847 207.875L223.29 209.061ZM219.479 231.295L231.826 233.244L219.479 231.295ZM210.586 261.151L198.459 258.119L210.586 261.151ZM180.588 321.713C178.496 328.292 182.134 335.321 188.713 337.412C195.292 339.504 202.321 335.866 204.412 329.287L180.588 321.713ZM164.5 242.729L171.333 232.262L164.5 242.729ZM155.5 228.5L143.44 231.789L143.726 232.837L144.189 233.82L155.5 228.5ZM152.143 211.822L164.559 210.375L152.143 211.822ZM164.635 204.439C164.907 197.054 164.672 192.022 165.634 187.548L141.192 182.296C139.617 189.624 139.824 198.84 139.652 203.519L164.635 204.439ZM165.634 187.548C166.903 181.641 168.63 178.087 170.662 173.231L147.6 163.579C145.91 167.617 143.058 173.609 141.192 182.296L165.634 187.548ZM170.662 173.231C173.002 167.639 175.85 163.326 178.831 159.153L158.487 144.623C155.115 149.344 151.01 155.432 147.6 163.579L170.662 173.231ZM178.831 159.153C179.873 157.694 180.499 156.765 180.911 156.154C181.351 155.503 181.256 155.664 181.113 155.835C181.027 155.939 181.054 155.886 181.786 155.154C182.122 154.818 182.534 154.409 183.094 153.853C183.645 153.306 184.312 152.643 185.12 151.834L167.444 134.156C166.18 135.42 164.579 137.005 164.1 137.485C163.398 138.187 162.626 138.968 161.901 139.838C161.12 140.777 160.547 141.638 160.195 142.159C159.817 142.72 159.337 143.433 158.487 144.623L178.831 159.153ZM185.12 151.834C190.216 146.74 190.564 146.024 194.674 143.614L182.03 122.048C174.575 126.418 171.828 129.772 167.444 134.156L185.12 151.834ZM194.674 143.614C197.764 141.803 199.675 140.569 201.321 139.534C202.88 138.554 204.389 137.63 207.044 136.181L195.071 114.235C191.863 115.985 189.9 117.184 188.012 118.371C186.213 119.502 184.702 120.481 182.03 122.048L194.674 143.614ZM207.044 136.181C210.684 134.195 211.921 133.532 213.317 132.917C214.794 132.267 216.514 131.645 221.142 129.992L212.735 106.448C208.47 107.971 205.742 108.937 203.249 110.034C200.675 111.167 198.418 112.409 195.071 114.235L207.044 136.181ZM221.142 129.992C225.163 128.557 226.917 128.104 228.56 127.869C230.433 127.602 232.639 127.544 237.901 127.544V102.544C233 102.544 228.972 102.557 225.029 103.12C220.855 103.715 217.209 104.851 212.735 106.448L221.142 129.992ZM237.901 127.544C243.296 127.544 244.671 127.445 246.579 127.535C247.973 127.601 249.54 127.786 254.088 128.613L258.56 104.016C253.868 103.163 250.919 102.712 247.759 102.563C245.114 102.438 241.898 102.544 237.901 102.544V127.544ZM254.088 128.613C257.359 129.208 258.755 129.56 260.074 129.999C261.663 130.529 263.319 131.235 267.397 132.935L277.013 109.858C269.179 106.594 266.906 105.534 258.56 104.016L254.088 128.613ZM267.397 132.935C269.967 134.005 272.381 134.977 274.687 136.118C277.12 137.323 278.301 138.186 278.671 138.551L296.231 120.757C292.961 117.53 288.879 115.248 285.779 113.714C282.552 112.116 279.164 110.754 277.013 109.858L267.397 132.935ZM278.671 138.551C281.011 140.861 283.636 143.002 285.194 144.346C286.97 145.879 288.126 146.993 289.058 148.178L308.713 132.729C306.269 129.619 303.652 127.252 301.527 125.419C299.183 123.396 297.779 122.285 296.231 120.757L278.671 138.551ZM289.058 148.178C294.631 155.269 297.202 157.354 300.046 162.438L321.864 150.232C317.78 142.932 311.909 136.795 308.713 132.729L289.058 148.178ZM300.046 162.438C303.797 169.143 306.992 176.846 308.189 183.367L332.778 178.853C330.914 168.695 326.392 158.326 321.864 150.232L300.046 162.438ZM308.189 183.367C309.73 191.76 310.586 197.903 309.945 204.714L334.835 207.055C335.821 196.577 334.373 187.539 332.778 178.853L308.189 183.367ZM309.945 204.714C309.2 212.64 308.191 216.871 305.495 224.668L329.121 232.84C332.373 223.439 333.877 217.245 334.835 207.055L309.945 204.714ZM305.495 224.668C303.035 231.779 300.075 236.708 295.065 243.723L315.41 258.252C321.105 250.277 325.561 243.135 329.121 232.84L305.495 224.668ZM295.065 243.723C289.901 250.954 286.348 254.202 278.606 260.102L293.757 279.988C302.758 273.13 308.341 268.151 315.41 258.252L295.065 243.723ZM278.606 260.102C274.892 262.932 272.987 264 271.099 264.784C268.761 265.756 266.12 266.456 259.966 268.165L266.658 292.253C271.939 290.786 276.546 289.593 280.691 287.871C285.286 285.962 289.099 283.537 293.757 279.988L278.606 260.102ZM259.966 268.165C252.113 270.346 247.093 271.492 240.389 271.521L240.495 296.52C250.639 296.477 258.278 294.581 266.658 292.253L259.966 268.165ZM240.389 271.521C238.852 271.527 237.524 271.564 236.405 271.603C235.193 271.645 234.492 271.677 233.775 271.693C232.242 271.728 232.807 271.589 233.827 271.901C235.307 272.353 236.108 273.152 236.045 273.088C235.732 272.77 235.04 271.944 233.412 269.697L213.169 284.368C215.727 287.897 219.651 293.711 226.526 295.811C229.67 296.771 232.641 296.726 234.347 296.687C236.631 296.635 237.802 296.532 240.495 296.52L240.389 271.521ZM233.412 269.697C230.577 265.786 227.174 260.492 224.538 255.128C221.731 249.417 220.544 245.117 220.544 242.729H195.544C195.544 251.008 198.851 259.542 202.102 266.156C205.524 273.118 209.744 279.642 213.169 284.368L233.412 269.697ZM220.544 242.729C220.544 242.705 220.544 242.682 220.544 242.658C220.544 242.634 220.544 242.611 220.544 242.587C220.544 242.563 220.544 242.54 220.544 242.516C220.544 242.493 220.544 242.469 220.544 242.446C220.544 242.422 220.544 242.399 220.544 242.376C220.544 242.352 220.544 242.329 220.544 242.305C220.544 242.282 220.544 242.259 220.544 242.236C220.544 242.212 220.544 242.189 220.544 242.166C220.544 242.143 220.544 242.119 220.544 242.096C220.544 242.073 220.544 242.05 220.544 242.027C220.544 242.004 220.544 241.981 220.544 241.958C220.544 241.935 220.544 241.912 220.544 241.889C220.544 241.866 220.544 241.843 220.544 241.82C220.544 241.797 220.544 241.775 220.544 241.752C220.544 241.729 220.544 241.706 220.544 241.684C220.544 241.661 220.544 241.638 220.544 241.615C220.544 241.593 220.544 241.57 220.544 241.548C220.544 241.525 220.544 241.502 220.544 241.48C220.544 241.457 220.544 241.435 220.544 241.412C220.544 241.39 220.544 241.367 220.544 241.345C220.544 241.322 220.544 241.3 220.544 241.278C220.544 241.255 220.544 241.233 220.544 241.211C220.544 241.188 220.544 241.166 220.544 241.144C220.544 241.122 220.544 241.1 220.544 241.077C220.544 241.055 220.544 241.033 220.544 241.011C220.544 240.989 220.544 240.967 220.544 240.945C220.544 240.923 220.544 240.901 220.544 240.879C220.544 240.857 220.544 240.835 220.544 240.813C220.544 240.791 220.544 240.769 220.544 240.747C220.544 240.725 220.544 240.704 220.544 240.682C220.544 240.66 220.544 240.638 220.544 240.616C220.544 240.595 220.544 240.573 220.544 240.551C220.544 240.53 220.544 240.508 220.544 240.486C220.544 240.465 220.544 240.443 220.544 240.422C220.544 240.4 220.544 240.379 220.544 240.357C220.544 240.336 220.544 240.314 220.544 240.293C220.544 240.271 220.544 240.25 220.544 240.228C220.544 240.207 220.544 240.186 220.544 240.164C220.544 240.143 220.544 240.122 220.544 240.101C220.544 240.079 220.544 240.058 220.544 240.037C220.544 240.016 220.544 239.994 220.544 239.973C220.544 239.952 220.544 239.931 220.544 239.91C220.544 239.889 220.544 239.868 220.544 239.847C220.544 239.826 220.544 239.805 220.544 239.784C220.544 239.763 220.544 239.742 220.544 239.721C220.544 239.7 220.544 239.679 220.544 239.658C220.544 239.637 220.544 239.617 220.544 239.596C220.544 239.575 220.544 239.554 220.544 239.533C220.544 239.513 220.544 239.492 220.544 239.471C220.544 239.45 220.544 239.43 220.544 239.409C220.544 239.389 220.544 239.368 220.544 239.347C220.544 239.327 220.544 239.306 220.544 239.286C220.544 239.265 220.544 239.245 220.544 239.224C220.544 239.204 220.544 239.183 220.544 239.163C220.544 239.142 220.544 239.122 220.544 239.102C220.544 239.081 220.544 239.061 220.544 239.04C220.544 239.02 220.544 239 220.544 238.98C220.544 238.959 220.544 238.939 220.544 238.919C220.544 238.899 220.544 238.878 220.544 238.858C220.544 238.838 220.544 238.818 220.544 238.798C220.544 238.778 220.544 238.758 220.544 238.738C220.544 238.718 220.544 238.698 220.544 238.678C220.544 238.658 220.544 238.638 220.544 238.618C220.544 238.598 220.544 238.578 220.544 238.558C220.544 238.538 220.544 238.518 220.544 238.498C220.544 238.478 220.544 238.459 220.544 238.439C220.544 238.419 220.544 238.399 220.544 238.379C220.544 238.36 220.544 238.34 220.544 238.32C220.544 238.3 220.544 238.281 220.544 238.261C220.544 238.241 220.544 238.222 220.544 238.202C220.544 238.183 220.544 238.163 220.544 238.144C220.544 238.124 220.544 238.104 220.544 238.085C220.544 238.065 220.544 238.046 220.544 238.026C220.544 238.007 220.544 237.988 220.544 237.968C220.544 237.949 220.544 237.929 220.544 237.91C220.544 237.891 220.544 237.871 220.544 237.852C220.544 237.833 220.544 237.813 220.544 237.794C220.544 237.775 220.544 237.756 220.544 237.736C220.544 237.717 220.544 237.698 220.544 237.679C220.544 237.66 220.544 237.64 220.544 237.621C220.544 237.602 220.544 237.583 220.544 237.564C220.544 237.545 220.544 237.526 220.544 237.507C220.544 237.488 220.544 237.469 220.544 237.45C220.544 237.431 220.544 237.412 220.544 237.393C220.544 237.374 220.544 237.355 220.544 237.336C220.544 237.317 220.544 237.298 220.544 237.279C220.544 237.261 220.544 237.242 220.544 237.223C220.544 237.204 220.544 237.185 220.544 237.167C220.544 237.148 220.544 237.129 220.544 237.11C220.544 237.092 220.544 237.073 220.544 237.054C220.544 237.035 220.544 237.017 220.544 236.998C220.544 236.98 220.544 236.961 220.544 236.942C220.544 236.924 220.544 236.905 220.544 236.887C220.544 236.868 220.544 236.85 220.544 236.831C220.544 236.813 220.544 236.794 220.544 236.776C220.544 236.757 220.544 236.739 220.544 236.72C220.544 236.702 220.544 236.683 220.544 236.665C220.544 236.647 220.544 236.628 220.544 236.61C220.544 236.592 220.544 236.573 220.544 236.555C220.544 236.537 220.544 236.518 220.544 236.5C220.544 236.482 220.544 236.464 220.544 236.445C220.544 236.427 220.544 236.409 220.544 236.391C220.544 236.373 220.544 236.354 220.544 236.336C220.544 236.318 220.544 236.3 220.544 236.282C220.544 236.264 220.544 236.246 220.544 236.228C220.544 236.21 220.544 236.191 220.544 236.173C220.544 236.155 220.544 236.137 220.544 236.119C220.544 236.101 220.544 236.083 220.544 236.066C220.544 236.048 220.544 236.03 220.544 236.012C220.544 235.994 220.544 235.976 220.544 235.958C220.544 235.94 220.544 235.922 220.544 235.904C220.544 235.887 220.544 235.869 220.544 235.851C220.544 235.833 220.544 235.815 220.544 235.798C220.544 235.78 220.544 235.762 220.544 235.744C220.544 235.727 220.544 235.709 220.544 235.691C220.544 235.674 220.544 235.656 220.544 235.638C220.544 235.621 220.544 235.603 220.544 235.585C220.544 235.568 220.544 235.55 220.544 235.533C220.544 235.515 220.544 235.497 220.544 235.48C220.544 235.462 220.544 235.445 220.544 235.427C220.544 235.41 220.544 235.392 220.544 235.375C220.544 235.357 220.544 235.34 220.544 235.322C220.544 235.305 220.544 235.287 220.544 235.27C220.544 235.253 220.544 235.235 220.544 235.218C220.544 235.201 220.544 235.183 220.544 235.166C220.544 235.148 220.544 235.131 220.544 235.114C220.544 235.097 220.544 235.079 220.544 235.062C220.544 235.045 220.544 235.027 220.544 235.01C220.544 234.993 220.544 234.976 220.544 234.958C220.544 234.941 220.544 234.924 220.544 234.907C220.544 234.89 220.544 234.873 220.544 234.855C220.544 234.838 220.544 234.821 220.544 234.804C220.544 234.787 220.544 234.77 220.544 234.753C220.544 234.736 220.544 234.718 220.544 234.701C220.544 234.684 220.544 234.667 220.544 234.65C220.544 234.633 220.544 234.616 220.544 234.599C220.544 234.582 220.544 234.565 220.544 234.548C220.544 234.531 220.544 234.514 220.544 234.497C220.544 234.481 220.544 234.464 220.544 234.447C220.544 234.43 220.544 234.413 220.544 234.396C220.544 234.379 220.544 234.362 220.544 234.345C220.544 234.329 220.544 234.312 220.544 234.295C220.544 234.278 220.544 234.261 220.544 234.244C220.544 234.228 220.544 234.211 220.544 234.194C220.544 234.177 220.544 234.161 220.544 234.144C220.544 234.127 220.544 234.11 220.544 234.094C220.544 234.077 220.544 234.06 220.544 234.044C220.544 234.027 220.544 234.01 220.544 233.994C220.544 233.977 220.544 233.96 220.544 233.944C220.544 233.927 220.544 233.91 220.544 233.894C220.544 233.877 220.544 233.861 220.544 233.844C220.544 233.827 220.544 233.811 220.544 233.794C220.544 233.778 220.544 233.761 220.544 233.745C220.544 233.728 220.544 233.712 220.544 233.695C220.544 233.679 220.544 233.662 220.544 233.646C220.544 233.629 220.544 233.613 220.544 233.596C220.544 233.58 220.544 233.563 220.544 233.547C220.544 233.531 220.544 233.514 220.544 233.498C220.544 233.481 220.544 233.465 220.544 233.449C220.544 233.432 220.544 233.416 220.544 233.399C220.544 233.383 220.544 233.367 220.544 233.35C220.544 233.334 220.544 233.318 220.544 233.301C220.544 233.285 220.544 233.269 220.544 233.252C220.544 233.236 220.544 233.22 220.544 233.204C220.544 233.187 220.544 233.171 220.544 233.155C220.544 233.139 220.544 233.122 220.544 233.106C220.544 233.09 220.544 233.074 220.544 233.058C220.544 233.041 220.544 233.025 220.544 233.009C220.544 232.993 220.544 232.977 220.544 232.96C220.544 232.944 220.544 232.928 220.544 232.912C220.544 232.896 220.544 232.88 220.544 232.864C220.544 232.847 220.544 232.831 220.544 232.815C220.544 232.799 220.544 232.783 220.544 232.767C220.544 232.751 220.544 232.735 220.544 232.719C220.544 232.703 220.544 232.687 220.544 232.671C220.544 232.655 220.544 232.638 220.544 232.622C220.544 232.606 220.544 232.59 220.544 232.574C220.544 232.558 220.544 232.542 220.544 232.526C220.544 232.51 220.544 232.494 220.544 232.478C220.544 232.462 220.544 232.447 220.544 232.431C220.544 232.415 220.544 232.399 220.544 232.383C220.544 232.367 220.544 232.351 220.544 232.335C220.544 232.319 220.544 232.303 220.544 232.287C220.544 232.271 220.544 232.255 220.544 232.24C220.544 232.224 220.544 232.208 220.544 232.192C220.544 232.176 220.544 232.16 220.544 232.144C220.544 232.128 220.544 232.113 220.544 232.097C220.544 232.081 220.544 232.065 220.544 232.049C220.544 232.033 220.544 232.018 220.544 232.002C220.544 231.986 220.544 231.97 220.544 231.954C220.544 231.939 220.544 231.923 220.544 231.907C220.544 231.891 220.544 231.875 220.544 231.86C220.544 231.844 220.544 231.828 220.544 231.812C220.544 231.797 220.544 231.781 220.544 231.765C220.544 231.749 220.544 231.734 220.544 231.718C220.544 231.702 220.544 231.687 220.544 231.671C220.544 231.655 220.544 231.639 220.544 231.624C220.544 231.608 220.544 231.592 220.544 231.577C220.544 231.561 220.544 231.545 220.544 231.53C220.544 231.514 220.544 231.498 220.544 231.483C220.544 231.467 220.544 231.451 220.544 231.436C220.544 231.42 220.544 231.404 220.544 231.389C220.544 231.373 220.544 231.357 220.544 231.342C220.544 231.326 220.544 231.31 220.544 231.295C220.544 231.279 220.544 231.264 220.544 231.248C220.544 231.232 220.544 231.217 220.544 231.201C220.544 231.186 220.544 231.17 220.544 231.154C220.544 231.139 220.544 231.123 220.544 231.108C220.544 231.092 220.544 231.076 220.544 231.061C220.544 231.045 220.544 231.03 220.544 231.014C220.544 230.999 220.544 230.983 220.544 230.967C220.544 230.952 220.544 230.936 220.544 230.921C220.544 230.905 220.544 230.89 220.544 230.874C220.544 230.859 220.544 230.843 220.544 230.828C220.544 230.812 220.544 230.797 220.544 230.781C220.544 230.766 220.544 230.75 220.544 230.734C220.544 230.719 220.544 230.703 220.544 230.688C220.544 230.672 220.544 230.657 220.544 230.641C220.544 230.626 220.544 230.61 220.544 230.595C220.544 230.579 220.544 230.564 220.544 230.548C220.544 230.533 220.544 230.517 220.544 230.502C220.544 230.486 220.544 230.471 220.544 230.456C220.544 230.44 220.544 230.425 220.544 230.409C220.544 230.394 220.544 230.378 220.544 230.363C220.544 230.347 220.544 230.332 220.544 230.316C220.544 230.301 220.544 230.285 220.544 230.27C220.544 230.254 220.544 230.239 220.544 230.224C220.544 230.208 220.544 230.193 220.544 230.177C220.544 230.162 220.544 230.146 220.544 230.131C220.544 230.115 220.544 230.1 220.544 230.084C220.544 230.069 220.544 230.054 220.544 230.038C220.544 230.023 220.544 230.007 220.544 229.992C220.544 229.976 220.544 229.961 220.544 229.945C220.544 229.93 220.544 229.915 220.544 229.899C220.544 229.884 220.544 229.868 220.544 229.853C220.544 229.837 220.544 229.822 220.544 229.807C220.544 229.791 220.544 229.776 220.544 229.76C220.544 229.745 220.544 229.729 220.544 229.714C220.544 229.698 220.544 229.683 220.544 229.668C220.544 229.652 220.544 229.637 220.544 229.621C220.544 229.606 220.544 229.59 220.544 229.575C220.544 229.56 220.544 229.544 220.544 229.529C220.544 229.513 220.544 229.498 220.544 229.482C220.544 229.467 220.544 229.452 220.544 229.436C220.544 229.421 220.544 229.405 220.544 229.39C220.544 229.374 220.544 229.359 220.544 229.344C220.544 229.328 220.544 229.313 220.544 229.297C220.544 229.282 220.544 229.266 220.544 229.251C220.544 229.235 220.544 229.22 220.544 229.205C220.544 229.189 220.544 229.174 220.544 229.158C220.544 229.143 220.544 229.127 220.544 229.112C220.544 229.096 220.544 229.081 220.544 229.066C220.544 229.05 220.544 229.035 220.544 229.019C220.544 229.004 220.544 228.988 220.544 228.973C220.544 228.957 220.544 228.942 220.544 228.926C220.544 228.911 220.544 228.896 220.544 228.88C220.544 228.865 220.544 228.849 220.544 228.834C220.544 228.818 220.544 228.803 220.544 228.787C220.544 228.772 220.544 228.756 220.544 228.741C220.544 228.725 220.544 228.71 220.544 228.694C220.544 228.679 220.544 228.663 220.544 228.648C220.544 228.632 220.544 228.617 220.544 228.601C220.544 228.586 220.544 228.57 220.544 228.555C220.544 228.539 220.544 228.524 220.544 228.508C220.544 228.493 220.544 228.477 220.544 228.462C220.544 228.446 220.544 228.431 220.544 228.415C220.544 228.4 220.544 228.384 220.544 228.369C220.544 228.353 220.544 228.338 220.544 228.322C220.544 228.306 220.544 228.291 220.544 228.275C220.544 228.26 220.544 228.244 220.544 228.229C220.544 228.213 220.544 228.198 220.544 228.182C220.544 228.166 220.544 228.151 220.544 228.135C220.544 228.12 220.544 228.104 220.544 228.089C220.544 228.073 220.544 228.057 220.544 228.042C220.544 228.026 220.544 228.011 220.544 227.995C220.544 227.979 220.544 227.964 220.544 227.948C220.544 227.933 220.544 227.917 220.544 227.901C220.544 227.886 220.544 227.87 220.544 227.854C220.544 227.839 220.544 227.823 220.544 227.808C220.544 227.792 220.544 227.776 220.544 227.761C220.544 227.745 220.544 227.729 220.544 227.714C220.544 227.698 220.544 227.682 220.544 227.667C220.544 227.651 220.544 227.635 220.544 227.619C220.544 227.604 220.544 227.588 220.544 227.572C220.544 227.557 220.544 227.541 220.544 227.525C220.544 227.51 220.544 227.494 220.544 227.478C220.544 227.462 220.544 227.447 220.544 227.431C220.544 227.415 220.544 227.399 220.544 227.384C220.544 227.368 220.544 227.352 220.544 227.336C220.544 227.321 220.544 227.305 220.544 227.289C220.544 227.273 220.544 227.257 220.544 227.242C220.544 227.226 220.544 227.21 220.544 227.194C220.544 227.178 220.544 227.162 220.544 227.147C220.544 227.131 220.544 227.115 220.544 227.099C220.544 227.083 220.544 227.067 220.544 227.052C220.544 227.036 220.544 227.02 220.544 227.004C220.544 226.988 220.544 226.972 220.544 226.956C220.544 226.94 220.544 226.925 220.544 226.909C220.544 226.893 220.544 226.877 220.544 226.861C220.544 226.845 220.544 226.829 220.544 226.813C220.544 226.797 220.544 226.781 220.544 226.765C220.544 226.749 220.544 226.733 220.544 226.717C220.544 226.701 220.544 226.685 220.544 226.669C220.544 226.653 220.544 226.637 220.544 226.621C220.544 226.605 220.544 226.589 220.544 226.573C220.544 226.557 220.544 226.541 220.544 226.525C220.544 226.509 220.544 226.493 220.544 226.477C220.544 226.461 220.544 226.445 220.544 226.429C220.544 226.413 220.544 226.396 220.544 226.38C220.544 226.364 220.544 226.348 220.544 226.332C220.544 226.316 220.544 226.3 220.544 226.284C220.544 226.267 220.544 226.251 220.544 226.235C220.544 226.219 220.544 226.203 220.544 226.187C220.544 226.17 220.544 226.154 220.544 226.138C220.544 226.122 220.544 226.106 220.544 226.089C220.544 226.073 220.544 226.057 220.544 226.041C220.544 226.024 220.544 226.008 220.544 225.992C220.544 225.975 220.544 225.959 220.544 225.943C220.544 225.927 220.544 225.91 220.544 225.894C220.544 225.878 220.544 225.861 220.544 225.845C220.544 225.829 220.544 225.812 220.544 225.796C220.544 225.779 220.544 225.763 220.544 225.747C220.544 225.73 220.544 225.714 220.544 225.698C220.544 225.681 220.544 225.665 220.544 225.648C220.544 225.632 220.544 225.615 220.544 225.599C220.544 225.582 220.544 225.566 220.544 225.549C220.544 225.533 220.544 225.516 220.544 225.5C220.544 225.483 220.544 225.467 220.544 225.45C220.544 225.434 220.544 225.417 220.544 225.401C220.544 225.384 220.544 225.368 220.544 225.351C220.544 225.334 220.544 225.318 220.544 225.301C220.544 225.285 220.544 225.268 220.544 225.251C220.544 225.235 220.544 225.218 220.544 225.201C220.544 225.185 220.544 225.168 220.544 225.151C220.544 225.135 220.544 225.118 220.544 225.101C220.544 225.084 220.544 225.068 220.544 225.051C220.544 225.034 220.544 225.017 220.544 225.001C220.544 224.984 220.544 224.967 220.544 224.95C220.544 224.933 220.544 224.917 220.544 224.9C220.544 224.883 220.544 224.866 220.544 224.849C220.544 224.832 220.544 224.816 220.544 224.799C220.544 224.782 220.544 224.765 220.544 224.748C220.544 224.731 220.544 224.714 220.544 224.697C220.544 224.68 220.544 224.663 220.544 224.646C220.544 224.629 220.544 224.612 220.544 224.595C220.544 224.578 220.544 224.561 220.544 224.544C220.544 224.527 220.544 224.51 220.544 224.493C220.544 224.476 220.544 224.459 220.544 224.442C220.544 224.425 220.544 224.408 220.544 224.39C220.544 224.373 220.544 224.356 220.544 224.339C220.544 224.322 220.544 224.305 220.544 224.287C220.544 224.27 220.544 224.253 220.544 224.236C220.544 224.219 220.544 224.201 220.544 224.184C220.544 224.167 220.544 224.15 220.544 224.132C220.544 224.115 220.544 224.098 220.544 224.08C220.544 224.063 220.544 224.046 220.544 224.028C220.544 224.011 220.544 223.994 220.544 223.976C220.544 223.959 220.544 223.941 220.544 223.924C220.544 223.907 220.544 223.889 220.544 223.872C220.544 223.854 220.544 223.837 220.544 223.819C220.544 223.802 220.544 223.784 220.544 223.767C220.544 223.749 220.544 223.732 220.544 223.714C220.544 223.696 220.544 223.679 220.544 223.661C220.544 223.644 220.544 223.626 220.544 223.608C220.544 223.591 220.544 223.573 220.544 223.555C220.544 223.538 220.544 223.52 220.544 223.502C220.544 223.485 220.544 223.467 220.544 223.449C220.544 223.432 220.544 223.414 220.544 223.396C220.544 223.378 220.544 223.36 220.544 223.343C220.544 223.325 220.544 223.307 220.544 223.289C220.544 223.271 220.544 223.253 220.544 223.235C220.544 223.218 220.544 223.2 220.544 223.182C220.544 223.164 220.544 223.146 220.544 223.128C220.544 223.11 220.544 223.092 220.544 223.074C220.544 223.056 220.544 223.038 220.544 223.02C220.544 223.002 220.544 222.984 220.544 222.966C220.544 222.948 220.544 222.93 220.544 222.911C220.544 222.893 220.544 222.875 220.544 222.857C220.544 222.839 220.544 222.821 220.544 222.802C220.544 222.784 220.544 222.766 220.544 222.748C220.544 222.73 220.544 222.711 220.544 222.693C220.544 222.675 220.544 222.656 220.544 222.638C220.544 222.62 220.544 222.601 220.544 222.583C220.544 222.565 220.544 222.546 220.544 222.528C220.544 222.51 220.544 222.491 220.544 222.473C220.544 222.454 220.544 222.436 220.544 222.417C220.544 222.399 220.544 222.38 220.544 222.362C220.544 222.343 220.544 222.325 220.544 222.306C220.544 222.288 220.544 222.269 220.544 222.25C220.544 222.232 220.544 222.213 220.544 222.194C220.544 222.176 220.544 222.157 220.544 222.138C220.544 222.12 220.544 222.101 220.544 222.082C220.544 222.063 220.544 222.045 220.544 222.026C220.544 222.007 220.544 221.988 220.544 221.969C220.544 221.951 220.544 221.932 220.544 221.913C220.544 221.894 220.544 221.875 220.544 221.856C220.544 221.837 220.544 221.818 220.544 221.799C220.544 221.78 220.544 221.761 220.544 221.742C220.544 221.723 220.544 221.704 220.544 221.685C220.544 221.666 220.544 221.647 220.544 221.628C220.544 221.609 220.544 221.59 220.544 221.571C220.544 221.552 220.544 221.532 220.544 221.513C220.544 221.494 220.544 221.475 220.544 221.456C220.544 221.436 220.544 221.417 220.544 221.398C220.544 221.378 220.544 221.359 220.544 221.34C220.544 221.32 220.544 221.301 220.544 221.282C220.544 221.262 220.544 221.243 220.544 221.224C220.544 221.204 220.544 221.185 220.544 221.165C220.544 221.146 220.544 221.126 220.544 221.107C220.544 221.087 220.544 221.068 220.544 221.048C220.544 221.028 220.544 221.009 220.544 220.989C220.544 220.97 220.544 220.95 220.544 220.93C220.544 220.911 220.544 220.891 220.544 220.871C220.544 220.851 220.544 220.832 220.544 220.812C220.544 220.792 220.544 220.772 220.544 220.753C220.544 220.733 220.544 220.713 220.544 220.693C220.544 220.673 220.544 220.653 220.544 220.633C220.544 220.613 220.544 220.593 220.544 220.573C220.544 220.553 220.544 220.533 220.544 220.513C220.544 220.493 220.544 220.473 220.544 220.453C220.544 220.433 220.544 220.413 220.544 220.393C220.544 220.373 220.544 220.353 220.544 220.332C220.544 220.312 220.544 220.292 220.544 220.272C220.544 220.252 220.544 220.231 220.544 220.211C220.544 220.191 220.544 220.17 220.544 220.15C220.544 220.13 220.544 220.109 220.544 220.089C220.544 220.069 220.544 220.048 220.544 220.028C220.544 220.007 220.544 219.987 220.544 219.966C220.544 219.946 220.544 219.925 220.544 219.905C220.544 219.884 220.544 219.864 220.544 219.843C220.544 219.822 220.544 219.802 220.544 219.781C220.544 219.76 220.544 219.74 220.544 219.719C220.544 219.698 220.544 219.678 220.544 219.657C220.544 219.636 220.544 219.615 220.544 219.594C220.544 219.574 220.544 219.553 220.544 219.532C220.544 219.511 220.544 219.49 220.544 219.469C220.544 219.448 220.544 219.427 220.544 219.406C220.544 219.385 220.544 219.364 220.544 219.343C220.544 219.322 220.544 219.301 220.544 219.28C220.544 219.259 220.544 219.238 220.544 219.216C220.544 219.195 220.544 219.174 220.544 219.153C220.544 219.132 220.544 219.11 220.544 219.089C220.544 219.068 220.544 219.046 220.544 219.025C220.544 219.004 220.544 218.982 220.544 218.961C220.544 218.94 220.544 218.918 220.544 218.897C220.544 218.875 220.544 218.854 220.544 218.832C220.544 218.811 220.544 218.789 220.544 218.768C220.544 218.746 220.544 218.724 220.544 218.703C220.544 218.681 220.544 218.659 220.544 218.638C220.544 218.616 220.544 218.594 220.544 218.572C220.544 218.551 220.544 218.529 220.544 218.507C220.544 218.485 220.544 218.463 220.544 218.442C220.544 218.42 220.544 218.398 220.544 218.376C220.544 218.354 220.544 218.332 220.544 218.31C220.544 218.288 220.544 218.266 220.544 218.244C220.544 218.222 220.544 218.2 220.544 218.178C220.544 218.155 220.544 218.133 220.544 218.111C220.544 218.089 220.544 218.067 220.544 218.044C220.544 218.022 220.544 218 220.544 217.978C220.544 217.955 220.544 217.933 220.544 217.91C220.544 217.888 220.544 217.866 220.544 217.843C220.544 217.821 220.544 217.798 220.544 217.776C220.544 217.753 220.544 217.731 220.544 217.708C220.544 217.686 220.544 217.663 220.544 217.64C220.544 217.618 220.544 217.595 220.544 217.572C220.544 217.55 220.544 217.527 220.544 217.504C220.544 217.481 220.544 217.459 220.544 217.436C220.544 217.413 220.544 217.39 220.544 217.367C220.544 217.344 220.544 217.321 220.544 217.298C220.544 217.276 220.544 217.253 220.544 217.23C220.544 217.206 220.544 217.183 220.544 217.16C220.544 217.137 220.544 217.114 220.544 217.091C220.544 217.068 220.544 217.045 220.544 217.021C220.544 216.998 220.544 216.975 220.544 216.952C220.544 216.928 220.544 216.905 220.544 216.882C220.544 216.858 220.544 216.835 220.544 216.811C220.544 216.788 220.544 216.765 220.544 216.741C220.544 216.718 220.544 216.694 220.544 216.671C220.544 216.647 220.544 216.623 220.544 216.6C220.544 216.576 220.544 216.552 220.544 216.529C220.544 216.505 220.544 216.481 220.544 216.458C220.544 216.434 220.544 216.41 220.544 216.386C220.544 216.362 220.544 216.338 220.544 216.314C220.544 216.291 220.544 216.267 220.544 216.243C220.544 216.219 220.544 216.195 220.544 216.171C220.544 216.147 220.544 216.122 220.544 216.098C220.544 216.074 220.544 216.05 220.544 216.026C220.544 216.002 220.544 215.977 220.544 215.953C220.544 215.929 220.544 215.905 220.544 215.88C220.544 215.856 220.544 215.832 220.544 215.807C220.544 215.783 220.544 215.758 220.544 215.734C220.544 215.709 220.544 215.685 220.544 215.66C220.544 215.636 220.544 215.611 220.544 215.587C220.544 215.562 220.544 215.537 220.544 215.513C220.544 215.488 220.544 215.463 220.544 215.438C220.544 215.414 220.544 215.389 220.544 215.364C220.544 215.339 220.544 215.314 220.544 215.289C220.544 215.264 220.544 215.24 220.544 215.215C220.544 215.19 220.544 215.165 220.544 215.139C220.544 215.114 220.544 215.089 220.544 215.064C220.544 215.039 220.544 215.014 220.544 214.989C220.544 214.963 220.544 214.938 220.544 214.913C220.544 214.888 220.544 214.862 220.544 214.837C220.544 214.812 220.544 214.786 220.544 214.761C220.544 214.735 220.544 214.71 220.544 214.684C220.544 214.659 220.544 214.633 220.544 214.608C220.544 214.582 220.544 214.556 220.544 214.531C220.544 214.505 220.544 214.479 220.544 214.454C220.544 214.428 220.544 214.402 220.544 214.376C220.544 214.35 220.544 214.325 220.544 214.299C220.544 214.273 220.544 214.247 220.544 214.221C220.544 214.195 220.544 214.169 220.544 214.143H195.544C195.544 214.169 195.544 214.195 195.544 214.221C195.544 214.247 195.544 214.273 195.544 214.299C195.544 214.325 195.544 214.35 195.544 214.376C195.544 214.402 195.544 214.428 195.544 214.454C195.544 214.479 195.544 214.505 195.544 214.531C195.544 214.556 195.544 214.582 195.544 214.608C195.544 214.633 195.544 214.659 195.544 214.684C195.544 214.71 195.544 214.735 195.544 214.761C195.544 214.786 195.544 214.812 195.544 214.837C195.544 214.862 195.544 214.888 195.544 214.913C195.544 214.938 195.544 214.963 195.544 214.989C195.544 215.014 195.544 215.039 195.544 215.064C195.544 215.089 195.544 215.114 195.544 215.139C195.544 215.165 195.544 215.19 195.544 215.215C195.544 215.24 195.544 215.264 195.544 215.289C195.544 215.314 195.544 215.339 195.544 215.364C195.544 215.389 195.544 215.414 195.544 215.438C195.544 215.463 195.544 215.488 195.544 215.513C195.544 215.537 195.544 215.562 195.544 215.587C195.544 215.611 195.544 215.636 195.544 215.66C195.544 215.685 195.544 215.709 195.544 215.734C195.544 215.758 195.544 215.783 195.544 215.807C195.544 215.832 195.544 215.856 195.544 215.88C195.544 215.905 195.544 215.929 195.544 215.953C195.544 215.977 195.544 216.002 195.544 216.026C195.544 216.05 195.544 216.074 195.544 216.098C195.544 216.122 195.544 216.147 195.544 216.171C195.544 216.195 195.544 216.219 195.544 216.243C195.544 216.267 195.544 216.291 195.544 216.314C195.544 216.338 195.544 216.362 195.544 216.386C195.544 216.41 195.544 216.434 195.544 216.458C195.544 216.481 195.544 216.505 195.544 216.529C195.544 216.552 195.544 216.576 195.544 216.6C195.544 216.623 195.544 216.647 195.544 216.671C195.544 216.694 195.544 216.718 195.544 216.741C195.544 216.765 195.544 216.788 195.544 216.811C195.544 216.835 195.544 216.858 195.544 216.882C195.544 216.905 195.544 216.928 195.544 216.952C195.544 216.975 195.544 216.998 195.544 217.021C195.544 217.045 195.544 217.068 195.544 217.091C195.544 217.114 195.544 217.137 195.544 217.16C195.544 217.183 195.544 217.206 195.544 217.23C195.544 217.253 195.544 217.276 195.544 217.298C195.544 217.321 195.544 217.344 195.544 217.367C195.544 217.39 195.544 217.413 195.544 217.436C195.544 217.459 195.544 217.481 195.544 217.504C195.544 217.527 195.544 217.55 195.544 217.572C195.544 217.595 195.544 217.618 195.544 217.64C195.544 217.663 195.544 217.686 195.544 217.708C195.544 217.731 195.544 217.753 195.544 217.776C195.544 217.798 195.544 217.821 195.544 217.843C195.544 217.866 195.544 217.888 195.544 217.91C195.544 217.933 195.544 217.955 195.544 217.978C195.544 218 195.544 218.022 195.544 218.044C195.544 218.067 195.544 218.089 195.544 218.111C195.544 218.133 195.544 218.155 195.544 218.178C195.544 218.2 195.544 218.222 195.544 218.244C195.544 218.266 195.544 218.288 195.544 218.31C195.544 218.332 195.544 218.354 195.544 218.376C195.544 218.398 195.544 218.42 195.544 218.442C195.544 218.463 195.544 218.485 195.544 218.507C195.544 218.529 195.544 218.551 195.544 218.572C195.544 218.594 195.544 218.616 195.544 218.638C195.544 218.659 195.544 218.681 195.544 218.703C195.544 218.724 195.544 218.746 195.544 218.768C195.544 218.789 195.544 218.811 195.544 218.832C195.544 218.854 195.544 218.875 195.544 218.897C195.544 218.918 195.544 218.94 195.544 218.961C195.544 218.982 195.544 219.004 195.544 219.025C195.544 219.046 195.544 219.068 195.544 219.089C195.544 219.11 195.544 219.132 195.544 219.153C195.544 219.174 195.544 219.195 195.544 219.216C195.544 219.238 195.544 219.259 195.544 219.28C195.544 219.301 195.544 219.322 195.544 219.343C195.544 219.364 195.544 219.385 195.544 219.406C195.544 219.427 195.544 219.448 195.544 219.469C195.544 219.49 195.544 219.511 195.544 219.532C195.544 219.553 195.544 219.574 195.544 219.594C195.544 219.615 195.544 219.636 195.544 219.657C195.544 219.678 195.544 219.698 195.544 219.719C195.544 219.74 195.544 219.76 195.544 219.781C195.544 219.802 195.544 219.822 195.544 219.843C195.544 219.864 195.544 219.884 195.544 219.905C195.544 219.925 195.544 219.946 195.544 219.966C195.544 219.987 195.544 220.007 195.544 220.028C195.544 220.048 195.544 220.069 195.544 220.089C195.544 220.109 195.544 220.13 195.544 220.15C195.544 220.17 195.544 220.191 195.544 220.211C195.544 220.231 195.544 220.252 195.544 220.272C195.544 220.292 195.544 220.312 195.544 220.332C195.544 220.353 195.544 220.373 195.544 220.393C195.544 220.413 195.544 220.433 195.544 220.453C195.544 220.473 195.544 220.493 195.544 220.513C195.544 220.533 195.544 220.553 195.544 220.573C195.544 220.593 195.544 220.613 195.544 220.633C195.544 220.653 195.544 220.673 195.544 220.693C195.544 220.713 195.544 220.733 195.544 220.753C195.544 220.772 195.544 220.792 195.544 220.812C195.544 220.832 195.544 220.851 195.544 220.871C195.544 220.891 195.544 220.911 195.544 220.93C195.544 220.95 195.544 220.97 195.544 220.989C195.544 221.009 195.544 221.028 195.544 221.048C195.544 221.068 195.544 221.087 195.544 221.107C195.544 221.126 195.544 221.146 195.544 221.165C195.544 221.185 195.544 221.204 195.544 221.224C195.544 221.243 195.544 221.262 195.544 221.282C195.544 221.301 195.544 221.32 195.544 221.34C195.544 221.359 195.544 221.378 195.544 221.398C195.544 221.417 195.544 221.436 195.544 221.456C195.544 221.475 195.544 221.494 195.544 221.513C195.544 221.532 195.544 221.552 195.544 221.571C195.544 221.59 195.544 221.609 195.544 221.628C195.544 221.647 195.544 221.666 195.544 221.685C195.544 221.704 195.544 221.723 195.544 221.742C195.544 221.761 195.544 221.78 195.544 221.799C195.544 221.818 195.544 221.837 195.544 221.856C195.544 221.875 195.544 221.894 195.544 221.913C195.544 221.932 195.544 221.951 195.544 221.969C195.544 221.988 195.544 222.007 195.544 222.026C195.544 222.045 195.544 222.063 195.544 222.082C195.544 222.101 195.544 222.12 195.544 222.138C195.544 222.157 195.544 222.176 195.544 222.194C195.544 222.213 195.544 222.232 195.544 222.25C195.544 222.269 195.544 222.288 195.544 222.306C195.544 222.325 195.544 222.343 195.544 222.362C195.544 222.38 195.544 222.399 195.544 222.417C195.544 222.436 195.544 222.454 195.544 222.473C195.544 222.491 195.544 222.51 195.544 222.528C195.544 222.546 195.544 222.565 195.544 222.583C195.544 222.601 195.544 222.62 195.544 222.638C195.544 222.656 195.544 222.675 195.544 222.693C195.544 222.711 195.544 222.73 195.544 222.748C195.544 222.766 195.544 222.784 195.544 222.802C195.544 222.821 195.544 222.839 195.544 222.857C195.544 222.875 195.544 222.893 195.544 222.911C195.544 222.93 195.544 222.948 195.544 222.966C195.544 222.984 195.544 223.002 195.544 223.02C195.544 223.038 195.544 223.056 195.544 223.074C195.544 223.092 195.544 223.11 195.544 223.128C195.544 223.146 195.544 223.164 195.544 223.182C195.544 223.2 195.544 223.218 195.544 223.235C195.544 223.253 195.544 223.271 195.544 223.289C195.544 223.307 195.544 223.325 195.544 223.343C195.544 223.36 195.544 223.378 195.544 223.396C195.544 223.414 195.544 223.432 195.544 223.449C195.544 223.467 195.544 223.485 195.544 223.502C195.544 223.52 195.544 223.538 195.544 223.555C195.544 223.573 195.544 223.591 195.544 223.608C195.544 223.626 195.544 223.644 195.544 223.661C195.544 223.679 195.544 223.696 195.544 223.714C195.544 223.732 195.544 223.749 195.544 223.767C195.544 223.784 195.544 223.802 195.544 223.819C195.544 223.837 195.544 223.854 195.544 223.872C195.544 223.889 195.544 223.907 195.544 223.924C195.544 223.941 195.544 223.959 195.544 223.976C195.544 223.994 195.544 224.011 195.544 224.028C195.544 224.046 195.544 224.063 195.544 224.08C195.544 224.098 195.544 224.115 195.544 224.132C195.544 224.15 195.544 224.167 195.544 224.184C195.544 224.201 195.544 224.219 195.544 224.236C195.544 224.253 195.544 224.27 195.544 224.287C195.544 224.305 195.544 224.322 195.544 224.339C195.544 224.356 195.544 224.373 195.544 224.39C195.544 224.408 195.544 224.425 195.544 224.442C195.544 224.459 195.544 224.476 195.544 224.493C195.544 224.51 195.544 224.527 195.544 224.544C195.544 224.561 195.544 224.578 195.544 224.595C195.544 224.612 195.544 224.629 195.544 224.646C195.544 224.663 195.544 224.68 195.544 224.697C195.544 224.714 195.544 224.731 195.544 224.748C195.544 224.765 195.544 224.782 195.544 224.799C195.544 224.816 195.544 224.832 195.544 224.849C195.544 224.866 195.544 224.883 195.544 224.9C195.544 224.917 195.544 224.933 195.544 224.95C195.544 224.967 195.544 224.984 195.544 225.001C195.544 225.017 195.544 225.034 195.544 225.051C195.544 225.068 195.544 225.084 195.544 225.101C195.544 225.118 195.544 225.135 195.544 225.151C195.544 225.168 195.544 225.185 195.544 225.201C195.544 225.218 195.544 225.235 195.544 225.251C195.544 225.268 195.544 225.285 195.544 225.301C195.544 225.318 195.544 225.334 195.544 225.351C195.544 225.368 195.544 225.384 195.544 225.401C195.544 225.417 195.544 225.434 195.544 225.45C195.544 225.467 195.544 225.483 195.544 225.5C195.544 225.516 195.544 225.533 195.544 225.549C195.544 225.566 195.544 225.582 195.544 225.599C195.544 225.615 195.544 225.632 195.544 225.648C195.544 225.665 195.544 225.681 195.544 225.698C195.544 225.714 195.544 225.73 195.544 225.747C195.544 225.763 195.544 225.779 195.544 225.796C195.544 225.812 195.544 225.829 195.544 225.845C195.544 225.861 195.544 225.878 195.544 225.894C195.544 225.91 195.544 225.927 195.544 225.943C195.544 225.959 195.544 225.975 195.544 225.992C195.544 226.008 195.544 226.024 195.544 226.041C195.544 226.057 195.544 226.073 195.544 226.089C195.544 226.106 195.544 226.122 195.544 226.138C195.544 226.154 195.544 226.17 195.544 226.187C195.544 226.203 195.544 226.219 195.544 226.235C195.544 226.251 195.544 226.267 195.544 226.284C195.544 226.3 195.544 226.316 195.544 226.332C195.544 226.348 195.544 226.364 195.544 226.38C195.544 226.396 195.544 226.413 195.544 226.429C195.544 226.445 195.544 226.461 195.544 226.477C195.544 226.493 195.544 226.509 195.544 226.525C195.544 226.541 195.544 226.557 195.544 226.573C195.544 226.589 195.544 226.605 195.544 226.621C195.544 226.637 195.544 226.653 195.544 226.669C195.544 226.685 195.544 226.701 195.544 226.717C195.544 226.733 195.544 226.749 195.544 226.765C195.544 226.781 195.544 226.797 195.544 226.813C195.544 226.829 195.544 226.845 195.544 226.861C195.544 226.877 195.544 226.893 195.544 226.909C195.544 226.925 195.544 226.94 195.544 226.956C195.544 226.972 195.544 226.988 195.544 227.004C195.544 227.02 195.544 227.036 195.544 227.052C195.544 227.067 195.544 227.083 195.544 227.099C195.544 227.115 195.544 227.131 195.544 227.147C195.544 227.162 195.544 227.178 195.544 227.194C195.544 227.21 195.544 227.226 195.544 227.242C195.544 227.257 195.544 227.273 195.544 227.289C195.544 227.305 195.544 227.321 195.544 227.336C195.544 227.352 195.544 227.368 195.544 227.384C195.544 227.399 195.544 227.415 195.544 227.431C195.544 227.447 195.544 227.462 195.544 227.478C195.544 227.494 195.544 227.51 195.544 227.525C195.544 227.541 195.544 227.557 195.544 227.572C195.544 227.588 195.544 227.604 195.544 227.619C195.544 227.635 195.544 227.651 195.544 227.667C195.544 227.682 195.544 227.698 195.544 227.714C195.544 227.729 195.544 227.745 195.544 227.761C195.544 227.776 195.544 227.792 195.544 227.808C195.544 227.823 195.544 227.839 195.544 227.854C195.544 227.87 195.544 227.886 195.544 227.901C195.544 227.917 195.544 227.933 195.544 227.948C195.544 227.964 195.544 227.979 195.544 227.995C195.544 228.011 195.544 228.026 195.544 228.042C195.544 228.057 195.544 228.073 195.544 228.089C195.544 228.104 195.544 228.12 195.544 228.135C195.544 228.151 195.544 228.166 195.544 228.182C195.544 228.198 195.544 228.213 195.544 228.229C195.544 228.244 195.544 228.26 195.544 228.275C195.544 228.291 195.544 228.306 195.544 228.322C195.544 228.338 195.544 228.353 195.544 228.369C195.544 228.384 195.544 228.4 195.544 228.415C195.544 228.431 195.544 228.446 195.544 228.462C195.544 228.477 195.544 228.493 195.544 228.508C195.544 228.524 195.544 228.539 195.544 228.555C195.544 228.57 195.544 228.586 195.544 228.601C195.544 228.617 195.544 228.632 195.544 228.648C195.544 228.663 195.544 228.679 195.544 228.694C195.544 228.71 195.544 228.725 195.544 228.741C195.544 228.756 195.544 228.772 195.544 228.787C195.544 228.803 195.544 228.818 195.544 228.834C195.544 228.849 195.544 228.865 195.544 228.88C195.544 228.896 195.544 228.911 195.544 228.926C195.544 228.942 195.544 228.957 195.544 228.973C195.544 228.988 195.544 229.004 195.544 229.019C195.544 229.035 195.544 229.05 195.544 229.066C195.544 229.081 195.544 229.096 195.544 229.112C195.544 229.127 195.544 229.143 195.544 229.158C195.544 229.174 195.544 229.189 195.544 229.205C195.544 229.22 195.544 229.235 195.544 229.251C195.544 229.266 195.544 229.282 195.544 229.297C195.544 229.313 195.544 229.328 195.544 229.344C195.544 229.359 195.544 229.374 195.544 229.39C195.544 229.405 195.544 229.421 195.544 229.436C195.544 229.452 195.544 229.467 195.544 229.482C195.544 229.498 195.544 229.513 195.544 229.529C195.544 229.544 195.544 229.56 195.544 229.575C195.544 229.59 195.544 229.606 195.544 229.621C195.544 229.637 195.544 229.652 195.544 229.668C195.544 229.683 195.544 229.698 195.544 229.714C195.544 229.729 195.544 229.745 195.544 229.76C195.544 229.776 195.544 229.791 195.544 229.807C195.544 229.822 195.544 229.837 195.544 229.853C195.544 229.868 195.544 229.884 195.544 229.899C195.544 229.915 195.544 229.93 195.544 229.945C195.544 229.961 195.544 229.976 195.544 229.992C195.544 230.007 195.544 230.023 195.544 230.038C195.544 230.054 195.544 230.069 195.544 230.084C195.544 230.1 195.544 230.115 195.544 230.131C195.544 230.146 195.544 230.162 195.544 230.177C195.544 230.193 195.544 230.208 195.544 230.224C195.544 230.239 195.544 230.254 195.544 230.27C195.544 230.285 195.544 230.301 195.544 230.316C195.544 230.332 195.544 230.347 195.544 230.363C195.544 230.378 195.544 230.394 195.544 230.409C195.544 230.425 195.544 230.44 195.544 230.456C195.544 230.471 195.544 230.486 195.544 230.502C195.544 230.517 195.544 230.533 195.544 230.548C195.544 230.564 195.544 230.579 195.544 230.595C195.544 230.61 195.544 230.626 195.544 230.641C195.544 230.657 195.544 230.672 195.544 230.688C195.544 230.703 195.544 230.719 195.544 230.734C195.544 230.75 195.544 230.766 195.544 230.781C195.544 230.797 195.544 230.812 195.544 230.828C195.544 230.843 195.544 230.859 195.544 230.874C195.544 230.89 195.544 230.905 195.544 230.921C195.544 230.936 195.544 230.952 195.544 230.967C195.544 230.983 195.544 230.999 195.544 231.014C195.544 231.03 195.544 231.045 195.544 231.061C195.544 231.076 195.544 231.092 195.544 231.108C195.544 231.123 195.544 231.139 195.544 231.154C195.544 231.17 195.544 231.186 195.544 231.201C195.544 231.217 195.544 231.232 195.544 231.248C195.544 231.264 195.544 231.279 195.544 231.295C195.544 231.31 195.544 231.326 195.544 231.342C195.544 231.357 195.544 231.373 195.544 231.389C195.544 231.404 195.544 231.42 195.544 231.436C195.544 231.451 195.544 231.467 195.544 231.483C195.544 231.498 195.544 231.514 195.544 231.53C195.544 231.545 195.544 231.561 195.544 231.577C195.544 231.592 195.544 231.608 195.544 231.624C195.544 231.639 195.544 231.655 195.544 231.671C195.544 231.687 195.544 231.702 195.544 231.718C195.544 231.734 195.544 231.749 195.544 231.765C195.544 231.781 195.544 231.797 195.544 231.812C195.544 231.828 195.544 231.844 195.544 231.86C195.544 231.875 195.544 231.891 195.544 231.907C195.544 231.923 195.544 231.939 195.544 231.954C195.544 231.97 195.544 231.986 195.544 232.002C195.544 232.018 195.544 232.033 195.544 232.049C195.544 232.065 195.544 232.081 195.544 232.097C195.544 232.113 195.544 232.128 195.544 232.144C195.544 232.16 195.544 232.176 195.544 232.192C195.544 232.208 195.544 232.224 195.544 232.24C195.544 232.255 195.544 232.271 195.544 232.287C195.544 232.303 195.544 232.319 195.544 232.335C195.544 232.351 195.544 232.367 195.544 232.383C195.544 232.399 195.544 232.415 195.544 232.431C195.544 232.447 195.544 232.462 195.544 232.478C195.544 232.494 195.544 232.51 195.544 232.526C195.544 232.542 195.544 232.558 195.544 232.574C195.544 232.59 195.544 232.606 195.544 232.622C195.544 232.638 195.544 232.655 195.544 232.671C195.544 232.687 195.544 232.703 195.544 232.719C195.544 232.735 195.544 232.751 195.544 232.767C195.544 232.783 195.544 232.799 195.544 232.815C195.544 232.831 195.544 232.847 195.544 232.864C195.544 232.88 195.544 232.896 195.544 232.912C195.544 232.928 195.544 232.944 195.544 232.96C195.544 232.977 195.544 232.993 195.544 233.009C195.544 233.025 195.544 233.041 195.544 233.058C195.544 233.074 195.544 233.09 195.544 233.106C195.544 233.122 195.544 233.139 195.544 233.155C195.544 233.171 195.544 233.187 195.544 233.204C195.544 233.22 195.544 233.236 195.544 233.252C195.544 233.269 195.544 233.285 195.544 233.301C195.544 233.318 195.544 233.334 195.544 233.35C195.544 233.367 195.544 233.383 195.544 233.399C195.544 233.416 195.544 233.432 195.544 233.449C195.544 233.465 195.544 233.481 195.544 233.498C195.544 233.514 195.544 233.531 195.544 233.547C195.544 233.563 195.544 233.58 195.544 233.596C195.544 233.613 195.544 233.629 195.544 233.646C195.544 233.662 195.544 233.679 195.544 233.695C195.544 233.712 195.544 233.728 195.544 233.745C195.544 233.761 195.544 233.778 195.544 233.794C195.544 233.811 195.544 233.827 195.544 233.844C195.544 233.861 195.544 233.877 195.544 233.894C195.544 233.91 195.544 233.927 195.544 233.944C195.544 233.96 195.544 233.977 195.544 233.994C195.544 234.01 195.544 234.027 195.544 234.044C195.544 234.06 195.544 234.077 195.544 234.094C195.544 234.11 195.544 234.127 195.544 234.144C195.544 234.161 195.544 234.177 195.544 234.194C195.544 234.211 195.544 234.228 195.544 234.244C195.544 234.261 195.544 234.278 195.544 234.295C195.544 234.312 195.544 234.329 195.544 234.345C195.544 234.362 195.544 234.379 195.544 234.396C195.544 234.413 195.544 234.43 195.544 234.447C195.544 234.464 195.544 234.481 195.544 234.497C195.544 234.514 195.544 234.531 195.544 234.548C195.544 234.565 195.544 234.582 195.544 234.599C195.544 234.616 195.544 234.633 195.544 234.65C195.544 234.667 195.544 234.684 195.544 234.701C195.544 234.718 195.544 234.736 195.544 234.753C195.544 234.77 195.544 234.787 195.544 234.804C195.544 234.821 195.544 234.838 195.544 234.855C195.544 234.873 195.544 234.89 195.544 234.907C195.544 234.924 195.544 234.941 195.544 234.958C195.544 234.976 195.544 234.993 195.544 235.01C195.544 235.027 195.544 235.045 195.544 235.062C195.544 235.079 195.544 235.097 195.544 235.114C195.544 235.131 195.544 235.148 195.544 235.166C195.544 235.183 195.544 235.201 195.544 235.218C195.544 235.235 195.544 235.253 195.544 235.27C195.544 235.287 195.544 235.305 195.544 235.322C195.544 235.34 195.544 235.357 195.544 235.375C195.544 235.392 195.544 235.41 195.544 235.427C195.544 235.445 195.544 235.462 195.544 235.48C195.544 235.497 195.544 235.515 195.544 235.533C195.544 235.55 195.544 235.568 195.544 235.585C195.544 235.603 195.544 235.621 195.544 235.638C195.544 235.656 195.544 235.674 195.544 235.691C195.544 235.709 195.544 235.727 195.544 235.744C195.544 235.762 195.544 235.78 195.544 235.798C195.544 235.815 195.544 235.833 195.544 235.851C195.544 235.869 195.544 235.887 195.544 235.904C195.544 235.922 195.544 235.94 195.544 235.958C195.544 235.976 195.544 235.994 195.544 236.012C195.544 236.03 195.544 236.048 195.544 236.066C195.544 236.083 195.544 236.101 195.544 236.119C195.544 236.137 195.544 236.155 195.544 236.173C195.544 236.191 195.544 236.21 195.544 236.228C195.544 236.246 195.544 236.264 195.544 236.282C195.544 236.3 195.544 236.318 195.544 236.336C195.544 236.354 195.544 236.373 195.544 236.391C195.544 236.409 195.544 236.427 195.544 236.445C195.544 236.464 195.544 236.482 195.544 236.5C195.544 236.518 195.544 236.537 195.544 236.555C195.544 236.573 195.544 236.592 195.544 236.61C195.544 236.628 195.544 236.647 195.544 236.665C195.544 236.683 195.544 236.702 195.544 236.72C195.544 236.739 195.544 236.757 195.544 236.776C195.544 236.794 195.544 236.813 195.544 236.831C195.544 236.85 195.544 236.868 195.544 236.887C195.544 236.905 195.544 236.924 195.544 236.942C195.544 236.961 195.544 236.98 195.544 236.998C195.544 237.017 195.544 237.035 195.544 237.054C195.544 237.073 195.544 237.092 195.544 237.11C195.544 237.129 195.544 237.148 195.544 237.167C195.544 237.185 195.544 237.204 195.544 237.223C195.544 237.242 195.544 237.261 195.544 237.279C195.544 237.298 195.544 237.317 195.544 237.336C195.544 237.355 195.544 237.374 195.544 237.393C195.544 237.412 195.544 237.431 195.544 237.45C195.544 237.469 195.544 237.488 195.544 237.507C195.544 237.526 195.544 237.545 195.544 237.564C195.544 237.583 195.544 237.602 195.544 237.621C195.544 237.64 195.544 237.66 195.544 237.679C195.544 237.698 195.544 237.717 195.544 237.736C195.544 237.756 195.544 237.775 195.544 237.794C195.544 237.813 195.544 237.833 195.544 237.852C195.544 237.871 195.544 237.891 195.544 237.91C195.544 237.929 195.544 237.949 195.544 237.968C195.544 237.988 195.544 238.007 195.544 238.026C195.544 238.046 195.544 238.065 195.544 238.085C195.544 238.104 195.544 238.124 195.544 238.144C195.544 238.163 195.544 238.183 195.544 238.202C195.544 238.222 195.544 238.241 195.544 238.261C195.544 238.281 195.544 238.3 195.544 238.32C195.544 238.34 195.544 238.36 195.544 238.379C195.544 238.399 195.544 238.419 195.544 238.439C195.544 238.459 195.544 238.478 195.544 238.498C195.544 238.518 195.544 238.538 195.544 238.558C195.544 238.578 195.544 238.598 195.544 238.618C195.544 238.638 195.544 238.658 195.544 238.678C195.544 238.698 195.544 238.718 195.544 238.738C195.544 238.758 195.544 238.778 195.544 238.798C195.544 238.818 195.544 238.838 195.544 238.858C195.544 238.878 195.544 238.899 195.544 238.919C195.544 238.939 195.544 238.959 195.544 238.98C195.544 239 195.544 239.02 195.544 239.04C195.544 239.061 195.544 239.081 195.544 239.102C195.544 239.122 195.544 239.142 195.544 239.163C195.544 239.183 195.544 239.204 195.544 239.224C195.544 239.245 195.544 239.265 195.544 239.286C195.544 239.306 195.544 239.327 195.544 239.347C195.544 239.368 195.544 239.389 195.544 239.409C195.544 239.43 195.544 239.45 195.544 239.471C195.544 239.492 195.544 239.513 195.544 239.533C195.544 239.554 195.544 239.575 195.544 239.596C195.544 239.617 195.544 239.637 195.544 239.658C195.544 239.679 195.544 239.7 195.544 239.721C195.544 239.742 195.544 239.763 195.544 239.784C195.544 239.805 195.544 239.826 195.544 239.847C195.544 239.868 195.544 239.889 195.544 239.91C195.544 239.931 195.544 239.952 195.544 239.973C195.544 239.994 195.544 240.016 195.544 240.037C195.544 240.058 195.544 240.079 195.544 240.101C195.544 240.122 195.544 240.143 195.544 240.164C195.544 240.186 195.544 240.207 195.544 240.228C195.544 240.25 195.544 240.271 195.544 240.293C195.544 240.314 195.544 240.336 195.544 240.357C195.544 240.379 195.544 240.4 195.544 240.422C195.544 240.443 195.544 240.465 195.544 240.486C195.544 240.508 195.544 240.53 195.544 240.551C195.544 240.573 195.544 240.595 195.544 240.616C195.544 240.638 195.544 240.66 195.544 240.682C195.544 240.704 195.544 240.725 195.544 240.747C195.544 240.769 195.544 240.791 195.544 240.813C195.544 240.835 195.544 240.857 195.544 240.879C195.544 240.901 195.544 240.923 195.544 240.945C195.544 240.967 195.544 240.989 195.544 241.011C195.544 241.033 195.544 241.055 195.544 241.077C195.544 241.1 195.544 241.122 195.544 241.144C195.544 241.166 195.544 241.188 195.544 241.211C195.544 241.233 195.544 241.255 195.544 241.278C195.544 241.3 195.544 241.322 195.544 241.345C195.544 241.367 195.544 241.39 195.544 241.412C195.544 241.435 195.544 241.457 195.544 241.48C195.544 241.502 195.544 241.525 195.544 241.548C195.544 241.57 195.544 241.593 195.544 241.615C195.544 241.638 195.544 241.661 195.544 241.684C195.544 241.706 195.544 241.729 195.544 241.752C195.544 241.775 195.544 241.797 195.544 241.82C195.544 241.843 195.544 241.866 195.544 241.889C195.544 241.912 195.544 241.935 195.544 241.958C195.544 241.981 195.544 242.004 195.544 242.027C195.544 242.05 195.544 242.073 195.544 242.096C195.544 242.119 195.544 242.143 195.544 242.166C195.544 242.189 195.544 242.212 195.544 242.236C195.544 242.259 195.544 242.282 195.544 242.305C195.544 242.329 195.544 242.352 195.544 242.376C195.544 242.399 195.544 242.422 195.544 242.446C195.544 242.469 195.544 242.493 195.544 242.516C195.544 242.54 195.544 242.563 195.544 242.587C195.544 242.611 195.544 242.634 195.544 242.658C195.544 242.682 195.544 242.705 195.544 242.729H220.544ZM220.544 214.143C220.544 210.667 221.042 206.838 221.941 203.501C222.905 199.92 224.012 198.089 224.44 197.599L205.625 181.137C201.607 185.73 199.219 191.736 197.801 196.998C196.318 202.503 195.544 208.521 195.544 214.143H220.544ZM224.44 197.599C224.841 197.141 225.061 196.892 225.215 196.726C225.389 196.538 225.259 196.696 224.942 196.968C224.652 197.217 223.709 198.002 222.2 198.632C220.445 199.363 218.341 199.712 216.13 199.391C214.168 199.106 212.809 198.387 212.275 198.081C211.759 197.785 211.466 197.546 211.655 197.689C211.748 197.759 213.008 198.758 214.191 199.591L228.579 179.145C227.834 178.622 227.725 178.499 226.75 177.761C226.659 177.691 223.779 175.239 219.724 174.65C214.011 173.821 210.081 176.775 208.643 178.012C207.374 179.103 206.169 180.515 205.625 181.137L224.44 197.599ZM214.191 199.591C213.007 198.757 212.398 197.627 212.185 196.966C212.048 196.541 212.176 196.64 212.138 197.713C212.101 198.75 211.943 200.035 211.67 201.856C211.436 203.414 211.048 205.766 210.847 207.875L235.734 210.246C235.851 209.022 236.068 207.727 236.392 205.57C236.677 203.675 237.03 201.177 237.122 198.606C237.287 193.983 236.762 184.904 228.579 179.145L214.191 199.591ZM210.847 207.875C210.44 212.148 210.045 214.217 209.524 216.689C208.936 219.478 208.143 222.94 207.132 229.345L231.826 233.244C232.721 227.579 233.375 224.747 233.986 221.847C234.664 218.63 235.222 215.618 235.734 210.246L210.847 207.875ZM207.132 229.345C206.578 232.853 205.271 237.081 203.508 242.256C201.892 247.001 199.777 252.849 198.459 258.119L222.712 264.183C223.701 260.229 225.29 255.845 227.174 250.316C228.91 245.216 230.897 239.128 231.826 233.244L207.132 229.345ZM198.459 258.119C194.143 275.383 189.669 291.304 186.27 302.917C184.572 308.719 183.146 313.435 182.147 316.693C181.647 318.322 181.255 319.586 180.988 320.438C180.855 320.864 180.753 321.187 180.686 321.402C180.652 321.509 180.627 321.589 180.61 321.641C180.602 321.667 180.596 321.686 180.592 321.698C180.59 321.704 180.589 321.708 180.588 321.711C180.588 321.712 180.588 321.713 180.587 321.713C180.587 321.713 180.587 321.713 180.587 321.713C180.587 321.713 180.588 321.713 192.5 325.5C204.412 329.287 204.413 329.287 204.413 329.286C204.413 329.286 204.413 329.285 204.413 329.284C204.414 329.283 204.414 329.281 204.415 329.279C204.417 329.274 204.419 329.267 204.421 329.259C204.427 329.242 204.434 329.219 204.444 329.188C204.463 329.127 204.492 329.037 204.528 328.921C204.602 328.687 204.71 328.344 204.849 327.898C205.128 327.005 205.535 325.698 206.048 324.024C207.075 320.676 208.532 315.856 210.264 309.938C213.725 298.111 218.294 281.858 222.712 264.183L198.459 258.119ZM176.09 235.32C174.945 234.747 174.671 234.441 171.333 232.262L157.667 253.196C159.329 254.281 162.055 256.253 164.91 257.68L176.09 235.32ZM171.333 232.262C172.034 232.719 172.443 233.113 172.512 233.179C172.627 233.288 172.643 233.315 172.555 233.215C172.377 233.01 172.062 232.617 171.651 232.042C170.802 230.856 170.02 229.57 169.623 228.797L147.377 240.203C148.444 242.284 149.912 244.623 151.322 246.593C152.04 247.596 152.857 248.664 153.715 249.648C154.377 250.406 155.778 251.963 157.667 253.196L171.333 232.262ZM169.623 228.797C168.459 226.527 167.393 224.416 166.811 223.18L144.189 233.82C144.981 235.505 146.241 237.988 147.377 240.203L169.623 228.797ZM167.56 225.211C166.832 222.544 166.652 221.731 166.53 221.105C166.446 220.678 166.391 220.351 166.242 219.528C166.105 218.77 165.929 217.827 165.663 216.515L141.162 221.485C141.986 225.547 141.799 225.769 143.44 231.789L167.56 225.211ZM165.663 216.515C164.963 213.061 164.677 211.383 164.559 210.375L139.727 213.27C139.98 215.436 140.464 218.042 141.162 221.485L165.663 216.515ZM164.559 210.375C164.473 209.636 164.465 209.05 164.635 204.439L139.652 203.519C139.51 207.373 139.368 210.188 139.727 213.27L164.559 210.375Z" fill="white"/>
</svg>
