<svg viewBox="0 0 472 406" fill="none" xmlns="http://www.w3.org/2000/svg"><path d="M42.5842 368.79C12.472 347.398 12.4719 69.2943 42.5842 41.7896C72.6964 14.285 396.403 11.2288 426.515 41.7896C456.627 72.3505 464.155 344.342 426.515 368.79C388.875 393.239 72.6963 390.183 42.5842 368.79Z" stroke="currentColor" stroke-width="40" stroke-linecap="round"/><path fill-rule="evenodd" clip-rule="evenodd" d="M236.5 345C314.648 345 378 281.648 378 203.5C378 125.352 314.648 62 236.5 62C158.352 62 95 125.352 95 203.5C95 281.648 158.352 345 236.5 345ZM241.818 111.525L242.959 111.512H242.979C244.571 111.494 245.488 111.484 246.579 111.535C247.973 111.601 249.54 111.786 254.087 112.613C257.359 113.208 258.754 113.56 260.074 113.999C260.918 114.281 261.781 114.612 263.017 115.116C263.864 115.461 264.886 115.887 266.196 116.434L267.397 116.935L268.471 117.381C270.643 118.282 272.705 119.137 274.687 120.118C277.121 121.323 278.301 122.187 278.67 122.552C280.52 124.377 282.547 126.096 284.085 127.4C284.493 127.747 284.867 128.064 285.194 128.346C286.97 129.879 288.126 130.993 289.058 132.178C291.029 134.687 292.625 136.569 293.991 138.179C296.484 141.12 298.208 143.153 300.046 146.438C303.797 153.143 306.992 160.846 308.189 167.367C309.73 175.76 310.585 181.903 309.945 188.714C309.2 196.641 308.191 200.871 305.495 208.667C303.035 215.779 300.075 220.708 295.065 227.723C289.901 234.954 286.349 238.203 278.605 244.102C274.892 246.932 272.986 248 271.099 248.784C268.974 249.667 266.598 250.326 261.562 251.723L259.966 252.165C252.113 254.347 247.093 255.492 240.389 255.521C238.852 255.527 237.524 255.564 236.405 255.603C235.966 255.618 235.595 255.632 235.266 255.645L234.867 255.659C234.492 255.17 234.017 254.532 233.412 253.697C230.783 250.07 227.667 245.254 225.125 240.297C225.461 239.307 225.814 238.278 226.183 237.205L226.619 235.938C226.8 235.408 226.985 234.868 227.173 234.316C228.911 229.216 230.897 223.128 231.826 217.244C232.598 212.357 233.191 209.577 233.731 207.045L233.735 207.025C233.82 206.629 233.903 206.239 233.986 205.848C234.665 202.63 235.223 199.618 235.734 194.246C235.825 193.289 235.978 192.288 236.195 190.866C236.256 190.469 236.322 190.04 236.392 189.57C236.677 187.675 237.03 185.177 237.122 182.606C237.287 177.982 236.762 168.904 228.579 163.146C228.125 162.826 227.907 162.656 227.584 162.404C227.378 162.243 227.13 162.048 226.75 161.761L226.725 161.74C226.42 161.494 223.613 159.215 219.724 158.65C214.011 157.821 210.081 160.775 208.643 162.012C207.473 163.018 206.359 164.295 205.766 164.977L205.76 164.982L205.625 165.137C201.606 169.729 199.219 175.736 197.801 180.998C196.318 186.503 195.544 192.521 195.544 198.143V198.221V198.299V198.376V198.454V198.531V198.607V198.684V198.761V198.837V198.913V198.989V199.064V199.14V199.214V199.29V199.364V199.438V199.513V199.586V199.66V199.734V199.807V199.88V199.953V200.026V200.098V200.17V200.243V200.314V200.386V200.458V200.529V200.6V200.67V200.741V200.812V200.882V200.952V201.021V201.091V201.16V201.229V201.298V201.367V201.436V201.504V201.572V201.641V201.708V201.776V201.843V201.911V201.978V202.044V202.111V202.178V202.244V202.31V202.376V202.441V202.507V202.572V202.638V202.703V202.768V202.832V202.896V202.961V203.025V203.089V203.153V203.216V203.28V203.343V203.406V203.469V203.532V203.594V203.657V203.719V203.781V203.843V203.905V203.966V204.028V204.089V204.15V204.211V204.272V204.333V204.393V204.453V204.513V204.573V204.633V204.693V204.752V204.812V204.871V204.93V204.989V205.048V205.106V205.165V205.224V205.282V205.34V205.398V205.456V205.513V205.571V205.628V205.686V205.742V205.799V205.856V205.913V205.969V206.026V206.082V206.138V206.194V206.25V206.306V206.362V206.417V206.473V206.528V206.583V206.638V206.693V206.748V206.802V206.857V206.912V206.966V207.02V207.074V207.128V207.182V207.235V207.289V207.343V207.396V207.449V207.502V207.556V207.608V207.661V207.714V207.767V207.819V207.872V207.924V207.976V208.028V208.081V208.132V208.184V208.236V208.288V208.339V208.391V208.442V208.493V208.544V208.595V208.646V208.697V208.748V208.799V208.849V208.9V208.95V209V209.051V209.101V209.151V209.201V209.251V209.301V209.351V209.401V209.45V209.5V209.549V209.599V209.648V209.697V209.747V209.796V209.845V209.894V209.943V209.992V210.041V210.089V210.138V210.187V210.235V210.284V210.332V210.38V210.429V210.477V210.525V210.573V210.621V210.669V210.717V210.765V210.813V210.861V210.909V210.957V211.004V211.052V211.099V211.146V211.194V211.242V211.289V211.336V211.384V211.431V211.478V211.525V211.572V211.62V211.667V211.713V211.761V211.808V211.854V211.901V211.948V211.995V212.042V212.088V212.135V212.182V212.229V212.275V212.322V212.369V212.415V212.462V212.508V212.555V212.602V212.648V212.694V212.741V212.787V212.833V212.88V212.926V212.973V213.019V213.065V213.112V213.158V213.205V213.251V213.297V213.344V213.39V213.436V213.482V213.529V213.575V213.621V213.667V213.714V213.76V213.807V213.853V213.899V213.945V213.992V214.038V214.084V214.131V214.177V214.224V214.27V214.316V214.363V214.409V214.456V214.502V214.548V214.595V214.642V214.688V214.734V214.781V214.828V214.874V214.921V214.967V215.014V215.061V215.107V215.154V215.201V215.248V215.295V215.342V215.389V215.436V215.482V215.53V215.577V215.624V215.671V215.718V215.765V215.812V215.86V215.907V215.955V216.002V216.049V216.097V216.145V216.192V216.24V216.287V216.335V216.383V216.431V216.479V216.526V216.574V216.623V216.67V216.719V216.767V216.815V216.864V216.912V216.96V217.009V217.058V217.106V217.155V217.204V217.252V217.301V217.351V217.399V217.449V217.498V217.547V217.596V217.646V217.695V217.745V217.794V217.844V217.894V217.944V217.994V218.043V218.094V218.144V218.194V218.245V218.295V218.345V218.396V218.447V218.498V218.548V218.599V218.65V218.702V218.752V218.804V218.855V218.907V218.958V219.01V219.062V219.114V219.166V219.218V219.27V219.322V219.375V219.427V219.48V219.533V219.585V219.638V219.691V219.745V219.798V219.851V219.904V219.958V220.012V220.065V220.12V220.173V220.228V220.282V220.336V220.391V220.445V220.5V220.555V220.61V220.665V220.72V220.775V220.831V220.887V220.942V220.998V221.054V221.11V221.167V221.223V221.279V221.336V221.393V221.45V221.507V221.564V221.621V221.679V221.736V221.794V221.852V221.91V221.968V222.026V222.085V222.144V222.202V222.261V222.32V222.379V222.438V222.498V222.558V222.618V222.678V222.738V222.798V222.858V222.919V222.979V223.041V223.102V223.163V223.224V223.286V223.347V223.409V223.471V223.533V223.596V223.658V223.721V223.784V223.847V223.91V223.973V224.037V224.101V224.165V224.229V224.292V224.357V224.422V224.486V224.551V224.617V224.682V224.747V224.813V224.879V224.945V225.011V225.078V225.144V225.211V225.278V225.345V225.412V225.48V225.547V225.615V225.684V225.752V225.82V225.889V225.958V226.027V226.096V226.166V226.235V226.306V226.375V226.446V226.516V226.587V226.658V226.729C195.544 231.837 196.803 237.042 198.531 241.834L198.459 242.12C194.143 259.383 189.668 275.304 186.271 286.917C184.572 292.719 183.146 297.435 182.147 300.693C181.647 302.322 181.255 303.586 180.988 304.438L180.686 305.402L180.61 305.641L180.592 305.698L180.588 305.71C178.496 312.292 182.134 319.321 188.712 321.413C195.292 323.504 202.321 319.866 204.413 313.288L192.5 309.5C204.413 313.288 204.413 313.287 204.414 313.284L204.415 313.279L204.421 313.259L204.444 313.188L204.528 312.92L204.85 311.898C205.128 311.005 205.535 309.698 206.048 308.024C207.075 304.676 208.532 299.856 210.264 293.938C212.048 287.843 214.125 280.573 216.325 272.538C218.746 275.431 221.995 278.427 226.526 279.811C229.67 280.771 232.641 280.726 234.347 280.687C235.223 280.667 235.936 280.639 236.634 280.612C237.754 280.569 238.836 280.527 240.495 280.521C250.639 280.478 258.278 278.581 266.658 276.253C267.234 276.093 267.802 275.937 268.363 275.781L268.508 275.742L268.515 275.74C273.028 274.495 277.04 273.388 280.691 271.871C285.286 269.962 289.099 267.537 293.757 263.988C302.758 257.129 308.341 252.151 315.41 242.251C321.105 234.277 325.561 227.135 329.122 216.84C332.373 207.439 333.877 201.246 334.835 191.055C335.821 180.577 334.373 171.539 332.778 162.853C330.914 152.695 326.392 142.325 321.864 134.232C318.806 128.766 314.747 123.953 311.559 120.173C310.488 118.904 309.516 117.751 308.713 116.729C306.269 113.619 303.651 111.252 301.527 109.419C300.877 108.858 300.299 108.367 299.771 107.918C298.394 106.748 297.35 105.862 296.231 104.757C292.961 101.53 288.878 99.248 285.779 97.7136C282.982 96.3289 280.064 95.1216 277.936 94.2407L277.013 93.8579L275.802 93.3525C268.918 90.479 266.46 89.4524 258.56 88.0161C253.868 87.1628 250.919 86.7124 247.759 86.5632C246.814 86.5186 245.795 86.5034 244.694 86.5022C243.745 86.5012 242.735 86.5107 241.657 86.521C240.76 86.5295 239.817 86.5386 238.823 86.5422L237.901 86.5439C233 86.5439 228.972 86.5574 225.029 87.1199C220.854 87.7153 217.209 88.8506 212.735 90.4482L212.267 90.6152C208.268 92.0432 205.649 92.978 203.249 94.0342C200.771 95.1245 198.587 96.3162 195.441 98.0325L195.071 98.2349C191.863 99.9851 189.9 101.184 188.013 102.371L187.123 102.932C185.672 103.848 184.253 104.744 182.03 106.048C175.655 109.785 172.723 112.779 169.265 116.31C168.679 116.908 168.079 117.521 167.444 118.156C166.687 118.912 165.81 119.784 165.125 120.465L164.583 121.003L164.1 121.485C163.398 122.188 162.626 122.968 161.901 123.838C161.162 124.726 160.61 125.545 160.254 126.072L160.195 126.159L160.147 126.231L160.135 126.249C159.765 126.796 159.292 127.496 158.487 128.623C155.115 133.344 151.01 139.432 147.6 147.579C147.378 148.109 147.136 148.673 146.879 149.273L146.877 149.277C145.176 153.241 142.812 158.752 141.191 166.295C139.935 172.146 139.813 179.2 139.727 184.188V184.194C139.706 185.451 139.686 186.577 139.651 187.519L139.622 188.316V188.325C139.492 191.775 139.394 194.407 139.727 197.27C139.979 199.436 140.464 202.042 141.162 205.484C141.4 206.66 141.554 207.514 141.692 208.28C142.031 210.161 142.274 211.511 143.44 215.789L143.727 216.837L144.189 217.82C144.981 219.504 146.241 221.988 147.377 224.204C148.444 226.284 149.912 228.623 151.322 230.593C152.04 231.596 152.857 232.664 153.715 233.648C154.376 234.406 155.778 235.963 157.667 237.196C158.019 237.426 158.418 237.695 158.856 237.991C160.489 239.091 162.659 240.555 164.91 241.68L176.09 247.271L187.271 224.91L176.09 219.32C175.377 218.963 175.002 218.71 174.015 218.043C173.716 217.842 173.361 217.603 172.924 217.312C172.728 217.181 172.516 217.04 172.284 216.887C172.115 216.673 171.9 216.391 171.651 216.042C170.802 214.856 170.02 213.57 169.623 212.796C168.717 211.031 167.871 209.361 167.266 208.125C166.779 206.303 166.634 205.637 166.53 205.105C166.499 204.947 166.472 204.803 166.443 204.642L166.364 204.206L166.242 203.528C166.105 202.77 165.929 201.827 165.663 200.516C164.962 197.061 164.677 195.383 164.559 194.375C164.473 193.636 164.465 193.05 164.635 188.439C164.71 186.4 164.746 184.54 164.78 182.822C164.868 178.317 164.938 174.786 165.634 171.547C166.717 166.504 168.135 163.174 169.792 159.286L169.793 159.281C170.076 158.618 170.366 157.938 170.662 157.23C173.002 151.639 175.85 147.326 178.831 143.153C179.439 142.302 179.905 141.631 180.27 141.098C180.507 140.752 180.702 140.464 180.864 140.223L180.912 140.154C181.027 139.983 181.105 139.868 181.156 139.795C181.209 139.739 181.296 139.649 181.427 139.516L181.786 139.154L182.351 138.591L182.833 138.112L183.094 137.853L184.099 136.854C184.412 136.542 184.751 136.204 185.121 135.834C185.99 134.964 186.722 134.222 187.357 133.577L187.36 133.575C190.444 130.446 191.267 129.612 194.674 127.615C197.277 126.089 199.042 124.973 200.518 124.04L201.321 123.534C202.88 122.554 204.389 121.63 207.044 120.181C210.684 118.195 211.921 117.531 213.317 116.917C214.794 116.267 216.514 115.645 221.142 113.992C225.163 112.556 226.917 112.104 228.56 111.869C230.433 111.602 232.639 111.544 237.901 111.544C239.533 111.544 240.797 111.535 241.818 111.525Z" fill="currentColor"/></svg>