<svg viewBox="0 0 472 406" fill="none" xmlns="http://www.w3.org/2000/svg"><path d="M42.5842 368.79C12.472 347.398 12.4719 69.2943 42.5842 41.7896C72.6964 14.285 396.403 11.2288 426.515 41.7896C456.627 72.3505 464.155 344.342 426.515 368.79C388.875 393.239 72.6963 390.183 42.5842 368.79Z" stroke="currentColor" stroke-width="40" stroke-linecap="round"/><path d="M282 266.976C306.028 251.881 322 225.14 322 194.669C322 147.542 283.796 109.338 236.669 109.338C189.542 109.338 151.338 147.542 151.338 194.669C151.338 226.663 168.946 254.544 195 269.152" stroke="currentColor" stroke-width="23.8616" stroke-linecap="round"/><path d="M277.595 312C279.573 311.314 281.528 310.579 283.46 309.798C329.454 291.197 361.903 246.114 361.903 193.451C361.903 124.166 305.736 68 236.451 68C167.166 68 111 124.166 111 193.451C111 246.662 144.128 292.135 190.885 310.371C192.539 311.016 194.772 311.938 197 312.813" stroke="currentColor" stroke-width="25" stroke-linecap="round"/><path d="M266.874 238.743C263.561 228.635 213.669 228.636 209.484 238.743C205.3 248.851 218.86 327.267 220.59 337.072C222.32 346.877 255.486 345.724 256.928 337.072C258.37 328.42 270.188 248.851 266.874 238.743Z" fill="currentColor" stroke="currentColor" stroke-width="0.880764" stroke-linecap="square"/><circle cx="236.739" cy="181.05" r="40.3751" fill="currentColor"/></svg>