<svg viewBox="0 0 472 406" fill="none" xmlns="http://www.w3.org/2000/svg"><path d="M42.5842 368.79C12.472 347.398 12.4719 69.2943 42.5842 41.7896C72.6964 14.285 396.403 11.2288 426.515 41.7896C456.627 72.3505 464.155 344.342 426.515 368.79C388.875 393.239 72.6963 390.183 42.5842 368.79Z" stroke="currentColor" stroke-width="40" stroke-linecap="round"/><mask id="path-2-inside-1_470_727" fill="currentColor"><path fill-rule="evenodd" clip-rule="evenodd" d="M235.889 313.777C303.206 313.777 357.777 259.206 357.777 191.889C357.777 124.571 303.206 70 235.889 70C168.571 70 114 124.571 114 191.889C114 259.206 168.571 313.777 235.889 313.777ZM172.648 115.872C184.332 76.7149 284.259 72.435 300.448 115.872C314.915 154.686 322.498 218.475 300.448 271.766C287.371 303.37 190.135 315.489 175.953 271.766C158.159 216.907 152.266 184.179 172.648 115.872Z"/></mask><path fill-rule="evenodd" clip-rule="evenodd" d="M235.889 313.777C303.206 313.777 357.777 259.206 357.777 191.889C357.777 124.571 303.206 70 235.889 70C168.571 70 114 124.571 114 191.889C114 259.206 168.571 313.777 235.889 313.777ZM172.648 115.872C184.332 76.7149 284.259 72.435 300.448 115.872C314.915 154.686 322.498 218.475 300.448 271.766C287.371 303.37 190.135 315.489 175.953 271.766C158.159 216.907 152.266 184.179 172.648 115.872Z" fill="currentColor"/><path d="M300.448 115.872L279 123.866V123.866L300.448 115.872ZM172.648 115.872L194.582 122.417L172.648 115.872ZM300.448 271.766L279.297 263.015V263.015L300.448 271.766ZM175.953 271.766L197.726 264.704L175.953 271.766ZM334.888 191.889C334.888 246.564 290.564 290.888 235.889 290.888V336.667C315.848 336.667 380.667 271.848 380.667 191.889H334.888ZM235.889 92.8899C290.564 92.8899 334.888 137.213 334.888 191.889H380.667C380.667 111.93 315.848 47.1101 235.889 47.1101V92.8899ZM136.89 191.889C136.89 137.213 181.213 92.8899 235.889 92.8899V47.1101C155.93 47.1101 91.1101 111.93 91.1101 191.889H136.89ZM235.889 290.888C181.213 290.888 136.89 246.564 136.89 191.889H91.1101C91.1101 271.848 155.93 336.667 235.889 336.667V290.888ZM321.897 107.878C314.961 89.269 299.738 77.6478 284.349 71.0184C268.9 64.3628 251.158 61.6989 234.428 62.0133C217.704 62.3277 200.351 65.649 185.631 72.4823C171.268 79.15 156.25 90.7728 150.714 109.327L194.582 122.417C194.888 121.393 196.742 117.796 204.907 114.006C212.715 110.381 223.547 108.006 235.289 107.785C247.025 107.564 258.031 109.528 266.236 113.063C274.502 116.624 277.841 120.756 279 123.866L321.897 107.878ZM321.599 280.518C346.472 220.405 337.745 150.398 321.897 107.878L279 123.866C292.085 158.974 298.525 216.546 279.297 263.015L321.599 280.518ZM154.18 278.829C160.454 298.171 175.606 309.742 191.06 315.914C206.33 322.012 223.757 323.75 239.864 322.87C256.075 321.984 272.642 318.356 286.66 312.213C299.77 306.469 314.944 296.601 321.599 280.518L279.297 263.015C279.413 262.734 277.529 266.232 268.287 270.282C259.952 273.934 248.872 276.529 237.366 277.158C225.757 277.793 215.398 276.338 208.039 273.399C200.864 270.533 198.544 267.223 197.726 264.704L154.18 278.829ZM150.714 109.327C140.057 145.04 135.806 172.999 137.122 199.977C138.427 226.742 145.168 251.043 154.18 278.829L197.726 264.704C188.945 237.631 183.842 218.138 182.847 197.747C181.863 177.57 184.856 155.011 194.582 122.417L150.714 109.327Z" fill="currentColor" mask="url(#path-2-inside-1_470_727)"/><path d="M218.754 256.046L213.571 242.302C213.571 242.302 232.723 229.458 260.888 235.091C289.053 240.724 307.754 303.814 324.428 303.814C341.101 303.814 343.355 288.267 343.355 288.267H358C358 288.267 354.662 340.524 310.909 335.133C270.802 330.191 255.706 265.734 238.356 256.046C229.615 251.165 218.754 256.046 218.754 256.046Z" fill="currentColor"/></svg>