<svg viewBox="0 0 472 406" fill="none" xmlns="http://www.w3.org/2000/svg"><path d="M42.5842 368.79C12.472 347.398 12.4719 69.2943 42.5842 41.7896C72.6964 14.285 396.403 11.2288 426.515 41.7896C456.627 72.3505 464.155 344.342 426.515 368.79C388.875 393.239 72.6963 390.183 42.5842 368.79Z" stroke="currentColor" stroke-width="40" stroke-linecap="round"/><circle cx="352.19" cy="94.8975" r="25.8975" stroke="currentColor" stroke-width="8.35404"/><circle cx="361.379" cy="197.652" r="32.5807" stroke="currentColor" stroke-width="8.35404"/><circle cx="110.758" cy="197.652" r="32.5807" stroke="currentColor" stroke-width="8.35404"/><path d="M325.456 91.5542C325.456 91.5542 266.143 75.6832 263.636 76.5169C261.13 77.3506 231.056 161.728 231.056 161.728" stroke="currentColor" stroke-width="8.35404" stroke-linecap="square"/><path fill-rule="evenodd" clip-rule="evenodd" d="M237.739 338C317.097 338 381.429 295.735 381.429 243.599C381.429 191.463 317.097 149.199 237.739 149.199C158.382 149.199 94.0498 191.463 94.0498 243.599C94.0498 295.735 158.382 338 237.739 338ZM186.489 280.993C184.533 279.77 181.956 280.363 180.732 282.319C179.509 284.274 180.102 286.852 182.058 288.075L184.273 284.534C182.058 288.075 182.058 288.076 182.059 288.076L182.061 288.077L182.068 288.082L182.09 288.095L182.169 288.144C182.237 288.186 182.335 288.247 182.463 288.325C182.718 288.48 183.089 288.705 183.566 288.99C184.521 289.558 185.903 290.364 187.629 291.329C191.077 293.256 195.921 295.826 201.503 298.396C212.5 303.457 226.997 308.822 239.431 308.761C251.697 308.7 265.973 303.338 276.799 298.305C282.294 295.749 287.06 293.201 290.454 291.291C292.152 290.336 293.511 289.537 294.451 288.975C294.921 288.693 295.286 288.471 295.537 288.317C295.662 288.24 295.759 288.18 295.826 288.138L295.903 288.09L295.925 288.076L295.932 288.072L295.934 288.071C295.935 288.07 295.935 288.07 293.711 284.534L295.935 288.07C297.888 286.842 298.475 284.263 297.247 282.31C296.019 280.358 293.44 279.77 291.488 280.998C291.488 280.998 291.487 280.998 293.433 284.092L291.487 280.998L291.486 280.999L291.473 281.007L291.414 281.044C291.359 281.078 291.275 281.13 291.163 281.199C290.938 281.337 290.6 281.543 290.159 281.807C289.277 282.336 287.983 283.096 286.357 284.011C283.101 285.843 278.53 288.286 273.276 290.73C262.602 295.693 249.728 300.356 239.389 300.407C228.911 300.459 215.841 295.799 204.996 290.807C199.659 288.35 195.014 285.886 191.704 284.037C190.051 283.113 188.736 282.345 187.839 281.811C187.391 281.544 187.047 281.336 186.819 281.196C186.705 281.127 186.619 281.074 186.564 281.04L186.503 281.002L186.49 280.994L186.489 280.993ZM186.489 280.993L186.488 280.993C186.488 280.993 186.489 280.993 184.273 284.534L186.489 280.993ZM209.335 225.22C209.335 236.755 199.985 246.106 188.45 246.106C176.916 246.106 167.565 236.755 167.565 225.22C167.565 213.686 176.916 204.335 188.45 204.335C199.985 204.335 209.335 213.686 209.335 225.22ZM288.699 246.106C300.233 246.106 309.584 236.755 309.584 225.22C309.584 213.686 300.233 204.335 288.699 204.335C277.164 204.335 267.814 213.686 267.814 225.22C267.814 236.755 277.164 246.106 288.699 246.106Z" fill="currentColor"/></svg>