<svg viewBox="0 0 472 406" xmlns="http://www.w3.org/2000/svg"><path d="M42.5842 368.79C12.472 347.398 12.4719 69.2943 42.5842 41.7896C72.6964 14.285 396.403 11.2288 426.515 41.7896C456.627 72.3505 464.155 344.342 426.515 368.79C388.875 393.239 72.6963 390.183 42.5842 368.79Z" stroke="currentColor" stroke-width="40" stroke-linecap="round"/><circle cx="152.378" cy="294.979" r="35.021"/><path d="M117 182.054C117 182.054 153.612 181.339 182.754 197.421C205.736 210.103 219.589 218.645 234.928 239.946C246.207 255.61 254.866 271.531 259.228 290.333C263.59 309.136 263.159 330 263.159 330" stroke="currentColor" stroke-width="50.03"/><path d="M117.357 92C134.868 92 145.785 93.1287 162.027 96.6456C180.017 100.541 188.554 102.266 205.625 109.153C224.552 116.79 235.502 122.622 252.081 134.525C264.763 143.63 275.457 153.039 286.387 164.186C296.149 174.141 300.273 179.321 308.901 190.273C318.771 202.802 321.353 207.491 328.556 221.721C334.797 234.05 339.437 245.725 343.565 258.171C347.692 270.618 347.143 276.547 350.354 289.261C354.256 304.705 354.643 316.063 354.643 330" stroke="currentColor" stroke-width="50.03"/></svg>