<svg viewBox="0 0 472 406" fill="none" xmlns="http://www.w3.org/2000/svg"><path d="M42.5842 368.79C12.472 347.398 12.4719 69.2943 42.5842 41.7896C72.6964 14.285 396.403 11.2288 426.515 41.7896C456.627 72.3505 464.155 344.342 426.515 368.79C388.875 393.239 72.6963 390.183 42.5842 368.79Z" stroke="currentColor" stroke-width="40" stroke-linecap="round"/><path d="M339 203.5C339 260.109 293.109 306 236.5 306C221.001 306 193.352 294.136 180.181 287.978C169.71 283.082 143.388 294.963 141.321 292.484C139.255 290.004 153.846 266.606 148.491 254.187C143.129 241.75 134 217.903 134 203.5C134 146.891 179.891 101 236.5 101C293.109 101 339 146.891 339 203.5Z" fill="currentColor"/><path d="M366 203.5C366 275.021 308.021 333 236.5 333C216.918 333 181.986 318.011 165.346 310.231C152.116 304.045 118.861 319.056 116.25 315.923C113.639 312.79 132.074 283.228 125.309 267.538C118.534 251.826 107 221.698 107 203.5C107 131.979 164.979 74 236.5 74C308.021 74 366 131.979 366 203.5Z" stroke="currentColor" stroke-width="20" stroke-linecap="square" stroke-dasharray="36.87 36.87"/></svg>