<svg viewBox="0 0 473 401" fill="none" xmlns="http://www.w3.org/2000/svg"><path fill-rule="evenodd" clip-rule="evenodd" d="M25.623 24.2707C-7.2077 54.2584 -7.20764 357.469 25.623 380.792C58.4537 404.116 403.176 407.448 444.214 380.792C485.252 354.137 477.045 57.5905 444.214 24.2707C411.383 -9.04916 58.4537 -5.71706 25.623 24.2707ZM166.801 172.112C166.382 157.331 165.561 128.35 167 121.312C167.387 119.418 167.701 117.676 167.997 116.03C169.102 109.891 169.964 105.099 173.5 98.8125C178.24 90.3848 182.728 86.5642 190.5 80.8125C198.854 74.63 207.5 71.7283 212 70.312C223.5 66.6925 255 65.8115 268.5 68.812C278.133 70.953 289.5 79.1419 293 82.3121C296.5 85.4823 302.202 91.1434 306 98.8125C310.084 107.059 313 116.312 313 121.312V180.312C313 184.473 316.623 184.764 320.585 185.083C321.385 185.148 322.199 185.213 323 185.312C326.187 185.705 329.094 183.633 332 181.562C334.906 179.491 337.813 177.419 341 177.812C345.767 178.4 349 178.812 350.5 185.312C352 191.812 342.5 196.812 340 197.812C338.595 198.374 337.288 198.863 336.044 199.329C331.759 200.932 328.221 202.257 324 205.312C322.93 206.087 321.953 206.721 321.062 207.299C317.857 209.378 315.77 210.731 314.5 215.312C312.999 220.726 315.509 224.411 318.214 228.381C319.175 229.792 320.161 231.239 321 232.812C325.358 240.985 329.5 246.312 334 251.812C339.045 257.979 343.713 261.639 350.5 265.812C355.868 269.113 362.923 271.381 368.953 273.32C376.394 275.713 382.274 277.603 381.5 280.312C379.5 287.312 367.903 290.385 357.5 292.812C349.704 294.631 343 295.812 340.5 295.812C339.378 295.812 339.114 298.193 338.772 301.276C338.199 306.442 337.407 313.581 332 314.812C329.062 315.481 327.187 314.041 325.229 312.537C323.487 311.2 321.68 309.812 319 309.812C318.044 309.812 316.795 309.789 315.357 309.763C310.029 309.667 302.119 309.524 297 310.312C292.527 311 287.3 315.352 281.714 320.002C277.933 323.15 273.987 326.434 270 328.812C268.775 329.542 267.634 330.245 266.543 330.915C260.945 334.358 256.694 336.973 249.5 338.312C242.589 339.598 239.418 340.058 232.5 338.812C225.546 337.56 221.387 335.253 216.036 332.283C214.631 331.503 213.143 330.677 211.5 329.812C206.482 327.172 204.152 325.333 201.469 323.215C199.539 321.692 197.427 320.025 194 317.812C192.828 317.055 191.628 316.155 190.405 315.239C188.164 313.559 185.85 311.824 183.5 310.812C182.5 310.382 158.5 309.812 157 310.812C156.026 311.462 155.25 312.066 154.555 312.607C152.602 314.126 151.283 315.153 148 315.312C141.735 315.616 141.147 307.254 140.724 301.231C140.51 298.191 140.339 295.747 139.5 295.312C138.485 294.786 136.707 294.675 134.534 294.539C133.588 294.48 132.566 294.417 131.5 294.312C127.781 293.947 123.519 293.136 120 292.312C110.085 289.99 98.0001 283.812 98.0001 279.312C98.0001 276.013 103.581 274.592 110.356 272.865C115.906 271.451 122.258 269.833 127 266.812C132.448 263.341 135.664 260.432 139.861 256.635C140.84 255.748 141.873 254.814 143 253.812C148.083 249.297 150.489 245.564 153.618 240.709C154.497 239.346 155.432 237.894 156.5 236.312C160.896 229.798 165.094 222.812 164.5 217.312C163.915 211.899 163.14 211.237 160.063 208.61C159.467 208.101 158.784 207.518 158 206.812C155.166 204.263 150.931 202.769 146.776 201.305C143.793 200.252 140.851 199.215 138.5 197.812C137.401 197.156 136.41 196.607 135.521 196.114C130.873 193.538 129 192.5 129 185.812C129 181.812 132.163 179.264 136 178.312C140.193 177.272 142.75 178.874 145.835 180.807C147.468 181.83 149.25 182.947 151.5 183.812C158 186.312 167 185.813 167 180.312C167 179.132 166.916 176.152 166.801 172.112Z" fill="currentColor"/><path d="M25.623 380.792L25.3334 381.2L25.623 380.792ZM25.623 24.2707L25.2858 23.9015L25.623 24.2707ZM444.214 380.792L443.942 380.373L444.214 380.792ZM444.214 24.2707L443.858 24.6216L444.214 24.2707ZM167 121.312L167.49 121.413L167 121.312ZM166.801 172.112L166.301 172.126L166.801 172.112ZM167.997 116.03L168.489 116.119L167.997 116.03ZM173.5 98.8125L173.064 98.5674L173.5 98.8125ZM190.5 80.8125L190.203 80.4106L190.5 80.8125ZM212 70.312L212.15 70.7889L212 70.312ZM268.5 68.812L268.391 69.3L268.5 68.812ZM293 82.3121L292.664 82.6827L293 82.3121ZM306 98.8125L305.552 99.0344L306 98.8125ZM320.585 185.083L320.545 185.582L320.585 185.083ZM323 185.312L323.061 184.816L323 185.312ZM341 177.812L341.061 177.316L341 177.812ZM336.044 199.329L335.868 198.861L336.044 199.329ZM324 205.312L323.707 204.907H323.707L324 205.312ZM321.062 207.299L321.334 207.718L321.062 207.299ZM314.5 215.312L314.018 215.178L314.5 215.312ZM318.214 228.381L318.627 228.099L318.214 228.381ZM321 232.812L320.559 233.047L321 232.812ZM334 251.812L333.613 252.129L334 251.812ZM350.5 265.812L350.762 265.387L350.5 265.812ZM368.953 273.32L368.8 273.796L368.953 273.32ZM381.5 280.312L381.019 280.175L381.5 280.312ZM357.5 292.812L357.386 292.325L357.5 292.812ZM338.772 301.276L339.269 301.332L338.772 301.276ZM332 314.812L331.889 314.324L332 314.812ZM325.229 312.537L324.924 312.934L325.229 312.537ZM315.357 309.763L315.366 309.264L315.357 309.763ZM297 310.312L296.924 309.818L297 310.312ZM281.714 320.002L282.034 320.386L281.714 320.002ZM270 328.812L270.256 329.241L270 328.812ZM266.543 330.915L266.281 330.49L266.543 330.915ZM249.5 338.312L249.409 337.82L249.5 338.312ZM232.5 338.812L232.589 338.32L232.5 338.812ZM216.036 332.283L215.794 332.72V332.72L216.036 332.283ZM211.5 329.812L211.267 330.255L211.5 329.812ZM201.469 323.215L201.159 323.608L201.469 323.215ZM194 317.812L194.271 317.392L194 317.812ZM190.405 315.239L190.105 315.639H190.105L190.405 315.239ZM183.5 310.812L183.698 310.353L183.5 310.812ZM157 310.812L157.277 311.228L157 310.812ZM154.555 312.607L154.862 313.001L154.555 312.607ZM148 315.312L147.976 314.813L148 315.312ZM140.724 301.231L141.223 301.196L140.724 301.231ZM139.5 295.312L139.27 295.756L139.5 295.312ZM134.534 294.539L134.503 295.039L134.534 294.539ZM131.5 294.312L131.549 293.814L131.5 294.312ZM120 292.312L120.114 291.825L120 292.312ZM110.356 272.865L110.48 273.35L110.356 272.865ZM127 266.812L126.731 266.39L127 266.812ZM139.861 256.635L140.196 257.005L139.861 256.635ZM143 253.812L142.668 253.439L143 253.812ZM153.618 240.709L154.038 240.98L153.618 240.709ZM156.5 236.312L156.085 236.032L156.5 236.312ZM164.5 217.312L164.997 217.258L164.5 217.312ZM160.063 208.61L159.739 208.99L160.063 208.61ZM158 206.812L158.334 206.44L158 206.812ZM146.776 201.305L146.943 200.833L146.776 201.305ZM138.5 197.812L138.244 198.241L138.5 197.812ZM135.521 196.114L135.278 196.551L135.521 196.114ZM136 178.312L135.879 177.827L136 178.312ZM145.835 180.807L145.569 181.231L145.835 180.807ZM151.5 183.812L151.679 183.345L151.5 183.812ZM25.9126 380.385C23.9559 378.995 22.0771 376.526 20.2971 373.047C18.5212 369.575 16.8644 365.14 15.3306 359.867C12.263 349.321 9.70213 335.475 7.65174 319.4C3.55141 287.253 1.5 246.25 1.5 205.03C1.5 163.811 3.55137 122.391 7.65192 89.41C9.70236 72.9182 12.2636 58.5494 15.3326 47.3755C16.8671 41.7885 18.5257 37.0108 20.3056 33.1704C22.0885 29.3238 23.9784 26.45 25.9602 24.6398L25.2858 23.9015C23.1638 25.8398 21.2064 28.849 19.3983 32.7499C17.5875 36.657 15.9117 41.4913 14.3683 47.1107C11.2815 58.3495 8.71296 72.771 6.65956 89.2867C2.55245 122.32 0.499997 163.784 0.5 205.03C0.500003 246.277 2.55244 287.325 6.65978 319.526C8.71323 335.626 11.2821 349.529 14.3703 360.146C15.9144 365.455 17.592 369.955 19.4069 373.502C21.2177 377.041 23.1863 379.675 25.3334 381.2L25.9126 380.385ZM443.942 380.373C438.906 383.644 429.125 386.495 415.703 388.91C402.308 391.32 385.366 393.284 366.073 394.819C327.49 397.89 279.541 399.243 231.843 399.035C184.145 398.827 136.708 397.057 99.1494 393.882C80.369 392.295 64.067 390.357 51.4405 388.09C45.1269 386.956 39.7406 385.742 35.4269 384.45C31.1027 383.155 27.8962 381.794 25.9126 380.385L25.3334 381.2C27.4536 382.706 30.7876 384.105 35.14 385.408C39.5029 386.714 44.9292 387.937 51.2637 389.074C63.9335 391.349 80.2698 393.29 99.0652 394.879C136.658 398.056 184.122 399.827 231.839 400.035C279.555 400.243 327.533 398.889 366.153 395.816C385.462 394.28 402.44 392.313 415.88 389.894C429.294 387.481 439.262 384.605 444.486 381.212L443.942 380.373ZM443.858 24.6216C447.866 28.6891 451.558 36.8564 454.843 48.2022C458.12 59.5212 460.97 73.9175 463.341 90.3569C468.082 123.234 470.902 164.236 471.415 205.037C471.928 245.839 470.133 286.42 465.649 318.457C463.407 334.477 460.494 348.343 456.87 359.026C453.235 369.739 448.919 377.141 443.942 380.373L444.486 381.212C449.769 377.78 454.174 370.084 457.817 359.347C461.47 348.581 464.393 334.646 466.639 318.595C471.132 286.492 472.928 245.856 472.415 205.024C471.902 164.191 469.079 123.144 464.33 90.2142C461.956 73.7502 459.099 59.3041 455.804 47.924C452.516 36.5707 448.77 28.1822 444.57 23.9197L443.858 24.6216ZM25.9602 24.6398C27.9422 22.8295 31.1742 21.0864 35.5506 19.4304C39.9175 17.778 45.3835 16.2271 51.7986 14.7821C64.6284 11.8921 81.2146 9.43467 100.314 7.43127C138.509 3.4247 186.712 1.23854 234.921 1.03033C283.13 0.822122 331.331 2.59196 369.525 6.49425C388.623 8.44553 405.207 10.9288 418.033 13.9609C424.447 15.4769 429.91 17.1277 434.274 18.913C438.647 20.7018 441.876 22.6101 443.858 24.6216L444.57 23.9197C442.448 21.7663 439.073 19.7959 434.653 17.9875C430.224 16.1756 424.706 14.5107 418.263 12.9877C405.377 9.94148 388.745 7.45281 369.626 5.49943C331.386 1.59241 283.147 -0.177964 234.916 0.0303398C186.685 0.238645 138.448 2.42571 100.209 6.43672C81.0915 8.4421 64.4623 10.9045 51.5789 13.8065C45.1375 15.2574 39.6226 16.8204 35.1967 18.4951C30.7803 20.1663 27.4077 21.9633 25.2858 23.9015L25.9602 24.6398ZM166.51 121.212C166.141 123.02 165.922 126.191 165.803 130.125C165.684 134.072 165.665 138.823 165.704 143.812C165.782 153.791 166.092 164.736 166.301 172.126L167.301 172.098C167.092 164.707 166.782 153.771 166.704 143.804C166.665 138.821 166.684 134.084 166.803 130.155C166.922 126.214 167.14 123.124 167.49 121.413L166.51 121.212ZM167.505 115.942C167.209 117.588 166.896 119.325 166.51 121.212L167.49 121.413C167.878 119.512 168.193 117.764 168.489 116.119L167.505 115.942ZM173.064 98.5674C169.484 104.933 168.611 109.797 167.505 115.942L168.489 116.119C169.593 109.984 170.445 105.265 173.936 99.0575L173.064 98.5674ZM190.203 80.4106C182.408 86.1792 177.854 90.0499 173.064 98.5674L173.936 99.0575C178.625 90.7197 183.048 86.9492 190.798 81.2144L190.203 80.4106ZM211.85 69.8351C207.336 71.2556 198.625 74.1772 190.203 80.4106L190.798 81.2144C199.083 75.0828 207.664 72.2009 212.15 70.7889L211.85 69.8351ZM268.608 68.3239C261.797 66.8099 250.497 66.2818 239.486 66.5797C228.482 66.8774 217.672 68.0028 211.85 69.8351L212.15 70.7889C217.828 69.0017 228.518 67.8768 239.514 67.5793C250.503 67.2819 261.703 67.8135 268.391 69.3L268.608 68.3239ZM293.336 81.9415C291.557 80.3308 287.814 77.4725 283.308 74.7482C278.807 72.026 273.503 69.4116 268.608 68.3239L268.391 69.3C273.13 70.3533 278.326 72.9039 282.791 75.6039C287.253 78.3019 290.942 81.1231 292.664 82.6827L293.336 81.9415ZM306.448 98.5905C302.608 90.8374 296.851 85.1259 293.336 81.9415L292.664 82.6827C296.149 85.8386 301.795 91.4495 305.552 99.0344L306.448 98.5905ZM313.5 121.312C313.5 118.736 312.753 115.115 311.509 111.131C310.261 107.135 308.501 102.736 306.448 98.5905L305.552 99.0344C307.583 103.135 309.323 107.486 310.554 111.429C311.789 115.383 312.5 118.889 312.5 121.312H313.5ZM313.5 180.312V121.312H312.5V180.312H313.5ZM320.625 184.585C318.614 184.423 316.817 184.272 315.512 183.683C314.876 183.395 314.384 183.014 314.047 182.495C313.71 181.977 313.5 181.279 313.5 180.312H312.5C312.5 181.426 312.743 182.325 313.209 183.041C313.675 183.757 314.336 184.248 315.101 184.594C316.598 185.27 318.594 185.425 320.545 185.582L320.625 184.585ZM323.061 184.816C322.248 184.715 321.423 184.649 320.625 184.585L320.545 185.582C321.347 185.646 322.15 185.711 322.939 185.808L323.061 184.816ZM331.71 181.155C330.249 182.196 328.83 183.206 327.386 183.912C325.948 184.615 324.525 184.996 323.061 184.816L322.939 185.808C324.662 186.021 326.286 185.563 327.825 184.81C329.357 184.061 330.844 182.999 332.29 181.969L331.71 181.155ZM341.061 177.316C339.337 177.103 337.714 177.561 336.175 178.314C334.643 179.063 333.155 180.124 331.71 181.155L332.29 181.969C333.751 180.928 335.17 179.918 336.614 179.212C338.052 178.509 339.475 178.128 340.939 178.308L341.061 177.316ZM350.987 185.2C350.22 181.875 348.984 180.004 347.239 178.92C345.535 177.862 343.414 177.606 341.061 177.316L340.939 178.308C343.353 178.606 345.231 178.85 346.711 179.77C348.15 180.663 349.28 182.249 350.013 185.424L350.987 185.2ZM340.186 198.276C341.474 197.761 344.526 196.234 347.079 194.001C349.611 191.786 351.803 188.735 350.987 185.2L350.013 185.424C350.697 188.389 348.889 191.088 346.421 193.248C343.973 195.389 341.026 196.863 339.814 197.348L340.186 198.276ZM336.219 199.797C337.463 199.332 338.775 198.841 340.186 198.276L339.814 197.348C338.415 197.907 337.113 198.395 335.868 198.861L336.219 199.797ZM324.293 205.717C328.455 202.705 331.936 201.4 336.219 199.797L335.868 198.861C331.583 200.465 327.988 201.808 323.707 204.907L324.293 205.717ZM321.334 207.718C322.224 207.141 323.211 206.501 324.293 205.717L323.707 204.907C322.648 205.674 321.681 206.301 320.79 206.879L321.334 207.718ZM314.982 215.446C315.6 213.216 316.405 211.808 317.423 210.706C318.453 209.59 319.72 208.765 321.334 207.718L320.79 206.879C319.199 207.911 317.819 208.803 316.688 210.028C315.543 211.268 314.67 212.826 314.018 215.178L314.982 215.446ZM318.627 228.099C315.91 224.111 313.549 220.611 314.982 215.446L314.018 215.178C312.448 220.841 315.109 224.711 317.801 228.662L318.627 228.099ZM321.441 232.577C320.587 230.976 319.586 229.507 318.627 228.099L317.801 228.662C318.764 230.076 319.735 231.502 320.559 233.047L321.441 232.577ZM334.387 251.495C329.895 246.005 325.776 240.707 321.441 232.577L320.559 233.047C324.939 241.262 329.105 246.619 333.613 252.129L334.387 251.495ZM350.762 265.387C344.008 261.234 339.388 257.608 334.387 251.495L333.613 252.129C338.703 258.349 343.417 262.045 350.238 266.238L350.762 265.387ZM369.106 272.844C363.061 270.901 356.069 268.649 350.762 265.387L350.238 266.238C355.667 269.577 362.785 271.862 368.8 273.796L369.106 272.844ZM381.981 280.449C382.237 279.553 381.915 278.752 381.277 278.071C380.654 277.407 379.692 276.81 378.524 276.247C376.182 275.118 372.813 274.036 369.106 272.844L368.8 273.796C372.534 274.997 375.825 276.056 378.09 277.148C379.225 277.695 380.053 278.228 380.548 278.755C381.027 279.266 381.15 279.717 381.019 280.175L381.981 280.449ZM357.614 293.299C362.811 292.086 368.354 290.702 372.851 288.735C377.325 286.778 380.915 284.179 381.981 280.449L381.019 280.175C380.085 283.445 376.876 285.883 372.451 287.819C368.049 289.744 362.592 291.11 357.386 292.325L357.614 293.299ZM340.5 296.312C341.799 296.312 344.14 296.009 347.101 295.487C350.074 294.962 353.709 294.21 357.614 293.299L357.386 292.325C353.495 293.233 349.879 293.981 346.927 294.502C343.962 295.025 341.701 295.312 340.5 295.312V296.312ZM339.269 301.332C339.442 299.775 339.59 298.45 339.828 297.511C339.948 297.039 340.079 296.714 340.216 296.517C340.343 296.334 340.433 296.312 340.5 296.312V295.312C340.006 295.312 339.643 295.588 339.394 295.948C339.155 296.293 338.988 296.756 338.859 297.265C338.6 298.287 338.445 299.694 338.275 301.221L339.269 301.332ZM332.111 315.3C335.052 314.63 336.695 312.35 337.668 309.691C338.638 307.04 338.984 303.901 339.269 301.332L338.275 301.221C337.987 303.817 337.65 306.831 336.729 309.348C335.811 311.858 334.355 313.763 331.889 314.324L332.111 315.3ZM324.924 312.934C326.868 314.426 328.92 316.026 332.111 315.3L331.889 314.324C329.204 314.936 327.507 313.656 325.534 312.141L324.924 312.934ZM319 310.312C321.49 310.312 323.172 311.588 324.924 312.934L325.534 312.141C323.803 310.812 321.87 309.312 319 309.312V310.312ZM315.348 310.263C316.784 310.289 318.038 310.312 319 310.312V309.312C318.05 309.312 316.805 309.29 315.366 309.264L315.348 310.263ZM297.076 310.806C302.143 310.026 310.004 310.167 315.348 310.263L315.366 309.264C310.055 309.168 302.095 309.022 296.924 309.818L297.076 310.806ZM282.034 320.386C284.832 318.057 287.516 315.823 290.057 314.084C292.605 312.34 294.954 311.133 297.076 310.806L296.924 309.818C294.574 310.18 292.073 311.492 289.492 313.259C286.905 315.03 284.182 317.297 281.394 319.618L282.034 320.386ZM270.256 329.241C274.283 326.84 278.26 323.528 282.034 320.386L281.394 319.618C277.606 322.771 273.691 326.029 269.744 328.383L270.256 329.241ZM266.805 331.341C267.896 330.67 269.035 329.97 270.256 329.241L269.744 328.383C268.516 329.115 267.371 329.819 266.281 330.49L266.805 331.341ZM249.592 338.804C256.884 337.446 261.205 334.786 266.805 331.341L266.281 330.49C260.686 333.93 256.503 336.5 249.409 337.82L249.592 338.804ZM232.411 339.304C239.415 340.565 242.655 340.095 249.592 338.804L249.409 337.82C242.524 339.102 239.421 339.55 232.589 338.32L232.411 339.304ZM215.794 332.72C221.149 335.692 225.369 338.037 232.411 339.304L232.589 338.32C225.722 337.084 221.626 334.813 216.279 331.845L215.794 332.72ZM211.267 330.255C212.904 331.116 214.388 331.939 215.794 332.72L216.279 331.845C214.874 331.066 213.381 330.237 211.733 329.37L211.267 330.255ZM201.159 323.608C203.853 325.734 206.21 327.594 211.267 330.255L211.733 329.37C206.754 326.75 204.451 324.932 201.779 322.823L201.159 323.608ZM193.729 318.232C197.135 320.432 199.233 322.087 201.159 323.608L201.779 322.823C199.845 321.297 197.718 319.618 194.271 317.392L193.729 318.232ZM190.105 315.639C191.324 316.553 192.539 317.464 193.729 318.232L194.271 317.392C193.117 316.646 191.931 315.757 190.705 314.839L190.105 315.639ZM183.302 311.272C185.587 312.256 187.852 313.95 190.105 315.639L190.705 314.839C188.476 313.168 186.113 311.393 183.698 310.353L183.302 311.272ZM157.277 311.228C157.267 311.235 157.284 311.223 157.356 311.2C157.421 311.179 157.512 311.157 157.63 311.134C157.866 311.087 158.184 311.044 158.578 311.005C159.363 310.927 160.415 310.87 161.649 310.83C164.115 310.749 167.279 310.74 170.432 310.776C173.584 310.811 176.72 310.892 179.128 310.99C180.333 311.039 181.352 311.092 182.1 311.146C182.474 311.174 182.775 311.201 182.995 311.227C183.105 311.24 183.19 311.253 183.25 311.264C183.323 311.277 183.328 311.283 183.302 311.272L183.698 310.353C183.61 310.315 183.507 310.294 183.43 310.28C183.341 310.264 183.234 310.248 183.113 310.234C182.871 310.205 182.553 310.177 182.172 310.149C181.41 310.094 180.378 310.04 179.169 309.991C176.749 309.892 173.604 309.811 170.443 309.776C167.284 309.74 164.104 309.749 161.617 309.83C160.374 309.871 159.297 309.929 158.479 310.01C158.071 310.05 157.718 310.097 157.438 310.152C157.183 310.202 156.909 310.272 156.723 310.397L157.277 311.228ZM154.862 313.001C155.557 312.46 156.321 311.867 157.277 311.228L156.723 310.397C155.732 311.057 154.943 311.671 154.248 312.212L154.862 313.001ZM148.024 315.811C149.718 315.729 150.936 315.421 151.99 314.921C153.032 314.427 153.893 313.755 154.862 313.001L154.248 312.212C153.263 312.978 152.488 313.579 151.562 314.018C150.648 314.451 149.564 314.736 147.976 314.813L148.024 315.811ZM140.225 301.266C140.436 304.259 140.69 307.928 141.7 310.81C142.206 312.256 142.918 313.548 143.948 314.461C144.993 315.387 146.334 315.893 148.024 315.811L147.976 314.813C146.534 314.883 145.452 314.458 144.611 313.713C143.757 312.955 143.12 311.838 142.643 310.479C141.687 307.749 141.436 304.226 141.223 301.196L140.225 301.266ZM139.27 295.756C139.32 295.782 139.43 295.88 139.552 296.181C139.669 296.469 139.768 296.868 139.853 297.377C140.023 298.393 140.118 299.737 140.225 301.266L141.223 301.196C141.117 299.685 141.019 298.286 140.84 297.212C140.75 296.675 140.636 296.192 140.478 295.804C140.326 295.43 140.099 295.059 139.73 294.868L139.27 295.756ZM134.503 295.039C135.595 295.107 136.564 295.167 137.386 295.275C138.216 295.384 138.843 295.535 139.27 295.756L139.73 294.868C139.142 294.563 138.372 294.396 137.516 294.283C136.653 294.17 135.647 294.108 134.566 294.04L134.503 295.039ZM131.451 294.81C132.528 294.915 133.558 294.98 134.503 295.039L134.566 294.04C133.618 293.981 132.605 293.918 131.549 293.814L131.451 294.81ZM119.886 292.799C123.418 293.626 127.703 294.441 131.451 294.81L131.549 293.814C127.86 293.452 123.621 292.646 120.114 291.825L119.886 292.799ZM97.5001 279.312C97.5001 280.649 98.3842 282.003 99.6952 283.274C101.025 284.564 102.886 285.854 105.037 287.064C109.34 289.486 114.884 291.627 119.886 292.799L120.114 291.825C115.201 290.674 109.745 288.566 105.527 286.193C103.417 285.006 101.637 283.763 100.391 282.556C99.1265 281.33 98.5001 280.225 98.5001 279.312H97.5001ZM110.233 272.381C106.86 273.24 103.725 274.037 101.436 275.041C99.1898 276.027 97.5001 277.325 97.5001 279.312H98.5001C98.5001 278.001 99.6007 276.939 101.838 275.957C104.034 274.994 107.077 274.217 110.48 273.35L110.233 272.381ZM126.731 266.39C122.07 269.36 115.803 270.962 110.233 272.381L110.48 273.35C116.009 271.941 122.446 270.306 127.269 267.234L126.731 266.39ZM139.525 256.264C135.331 260.059 132.141 262.944 126.731 266.39L127.269 267.234C132.755 263.739 135.997 260.804 140.196 257.005L139.525 256.264ZM142.668 253.439C141.539 254.442 140.504 255.378 139.525 256.264L140.196 257.005C141.176 256.119 142.207 255.186 143.332 254.186L142.668 253.439ZM153.198 240.438C150.072 245.289 147.697 248.971 142.668 253.439L143.332 254.186C148.47 249.622 150.906 245.84 154.038 240.98L153.198 240.438ZM156.085 236.032C155.014 237.62 154.076 239.075 153.198 240.438L154.038 240.98C154.917 239.616 155.85 238.169 156.914 236.592L156.085 236.032ZM164.003 217.366C164.285 219.979 163.43 222.999 161.919 226.219C160.412 229.43 158.281 232.778 156.085 236.032L156.914 236.592C159.115 233.331 161.282 229.929 162.824 226.644C164.362 223.368 165.309 220.145 164.997 217.258L164.003 217.366ZM159.739 208.99C161.296 210.32 162.18 211.083 162.779 212.159C163.377 213.234 163.711 214.664 164.003 217.366L164.997 217.258C164.704 214.547 164.357 212.939 163.653 211.673C162.949 210.409 161.907 209.527 160.388 208.23L159.739 208.99ZM157.666 207.184C158.455 207.894 159.142 208.481 159.739 208.99L160.388 208.23C159.792 207.72 159.114 207.141 158.334 206.44L157.666 207.184ZM146.61 201.776C150.793 203.251 154.921 204.715 157.666 207.184L158.334 206.44C155.411 203.811 151.069 202.288 146.943 200.833L146.61 201.776ZM138.244 198.241C140.646 199.675 143.639 200.728 146.61 201.776L146.943 200.833C143.946 199.776 141.055 198.755 138.756 197.383L138.244 198.241ZM135.278 196.551C136.168 197.044 137.152 197.59 138.244 198.241L138.756 197.383C137.65 196.722 136.652 196.169 135.763 195.677L135.278 196.551ZM128.5 185.812C128.5 189.189 128.969 191.254 130.116 192.802C131.243 194.325 132.985 195.28 135.278 196.551L135.763 195.677C133.408 194.371 131.89 193.519 130.919 192.207C129.967 190.921 129.5 189.123 129.5 185.812H128.5ZM135.879 177.827C131.932 178.806 128.5 181.484 128.5 185.812H129.5C129.5 182.14 132.393 179.722 136.12 178.797L135.879 177.827ZM146.1 180.383C143.018 178.452 140.295 176.731 135.879 177.827L136.12 178.797C140.09 177.812 142.482 179.296 145.569 181.231L146.1 180.383ZM151.679 183.345C149.48 182.499 147.736 181.408 146.1 180.383L145.569 181.231C147.201 182.253 149.02 183.394 151.32 184.279L151.679 183.345ZM166.5 180.312C166.5 181.531 166.01 182.455 165.174 183.146C164.321 183.851 163.087 184.327 161.607 184.569C158.646 185.052 154.861 184.569 151.679 183.345L151.32 184.279C154.639 185.555 158.604 186.072 161.768 185.556C163.35 185.298 164.773 184.774 165.811 183.917C166.865 183.045 167.5 181.844 167.5 180.312H166.5ZM166.301 172.126C166.416 176.172 166.5 179.141 166.5 180.312H167.5C167.5 179.123 167.415 176.133 167.301 172.098L166.301 172.126Z" fill="currentColor"/></svg>