<svg viewBox="0 0 472 406" fill="none" xmlns="http://www.w3.org/2000/svg"><path d="M42.5842 368.79C12.472 347.398 12.4719 69.2943 42.5842 41.7896C72.6964 14.285 396.403 11.2288 426.515 41.7896C456.627 72.3505 464.155 344.342 426.515 368.79C388.875 393.239 72.6963 390.183 42.5842 368.79Z" stroke="currentColor" stroke-width="40" stroke-linecap="round"/><path fill-rule="evenodd" clip-rule="evenodd" d="M236 338C310.558 338 371 277.558 371 203C371 128.442 310.558 68 236 68C161.442 68 101 128.442 101 203C101 277.558 161.442 338 236 338ZM214.906 206.198C234.322 205.693 245.346 207.453 264.117 213.245C273.222 216.055 282.573 219.889 289.737 223.074C293.297 224.656 296.271 226.058 298.346 227.059C299.382 227.559 300.193 227.959 300.737 228.23C301.009 228.365 301.215 228.468 301.349 228.536L301.496 228.61L301.528 228.627L301.532 228.629L301.533 228.629C306.257 231.041 312.042 229.168 314.455 224.445C316.868 219.721 314.994 213.935 310.271 211.522L305.901 220.075C310.271 211.522 310.27 211.522 310.269 211.521L310.267 211.52L310.262 211.517L310.246 211.509L310.192 211.482C310.147 211.459 310.083 211.427 310.001 211.385C309.837 211.303 309.6 211.184 309.296 211.032C308.687 210.729 307.806 210.295 306.694 209.758C304.471 208.686 301.313 207.198 297.54 205.52C290.036 202.185 279.911 198.015 269.781 194.89C249.232 188.549 236.125 186.43 214.406 186.995C201.918 187.32 188.303 189.281 177.997 191.104C172.803 192.023 168.365 192.922 165.217 193.593C163.642 193.928 162.387 194.208 161.518 194.405C161.083 194.504 160.745 194.582 160.512 194.636C160.395 194.663 160.304 194.685 160.241 194.7L160.166 194.717L160.144 194.723L160.137 194.724L160.135 194.725C160.134 194.725 160.133 194.725 162.342 203.978L160.133 194.725C154.974 195.957 151.79 201.138 153.021 206.298C154.253 211.457 159.434 214.641 164.593 213.41L164.594 213.41L164.603 213.407L164.653 213.396L164.718 213.38L164.872 213.344C165.071 213.298 165.373 213.228 165.77 213.138C166.564 212.958 167.736 212.697 169.222 212.38C172.196 211.746 176.41 210.892 181.343 210.02C191.29 208.261 203.822 206.487 214.906 206.198ZM269.707 169.63C250.393 165.283 234.081 163.537 214.425 164.044C201.82 164.369 187.632 166.269 176.387 168.148C170.811 169.08 166.051 169.991 162.695 170.667C161.018 171.005 159.695 171.283 158.8 171.475C158.353 171.571 158.012 171.645 157.789 171.694L157.675 171.719L157.542 171.749L157.486 171.761L157.477 171.764L157.475 171.764L157.475 171.764C151.151 173.19 144.869 169.22 143.442 162.896C142.015 156.571 145.986 150.288 152.31 148.861L154.862 160.172C152.31 148.861 152.311 148.861 152.312 148.86L152.315 148.86L152.323 148.858L152.348 148.852L152.432 148.833C152.504 148.817 152.607 148.795 152.739 148.766C153.003 148.707 153.386 148.624 153.877 148.519C154.859 148.308 156.278 148.009 158.059 147.651C161.618 146.934 166.638 145.974 172.517 144.991C184.183 143.041 199.61 140.939 213.82 140.573C235.544 140.013 253.792 141.983 274.862 146.725C287.756 149.627 301.465 154.89 311.673 159.258C316.839 161.468 321.237 163.506 324.353 164.995C325.912 165.74 327.155 166.351 328.018 166.78C328.449 166.994 328.786 167.164 329.02 167.282C329.083 167.313 329.138 167.341 329.185 167.366C329.227 167.387 329.263 167.405 329.293 167.42L329.37 167.46L329.394 167.472L329.401 167.476L329.404 167.477C329.406 167.478 329.407 167.478 324.043 177.921L329.407 167.478C335.174 170.44 337.448 177.517 334.486 183.284C331.524 189.051 324.449 191.325 318.682 188.364L318.68 188.363L318.676 188.361L318.631 188.338C318.604 188.324 318.567 188.306 318.52 188.282L318.425 188.234C318.353 188.197 318.267 188.153 318.166 188.103C318.002 188.021 317.802 187.92 317.566 187.803C316.802 187.423 315.668 186.866 314.228 186.178C311.343 184.799 307.246 182.901 302.437 180.843C292.692 176.674 280.521 172.064 269.707 169.63ZM211.326 247.195C220.015 246.754 236.365 247.813 244.027 248.821C249.454 249.535 258.164 252.301 266.085 255.177C269.92 256.57 273.374 257.914 275.869 258.91C277.115 259.408 278.118 259.817 278.805 260.1C279.149 260.242 279.413 260.352 279.589 260.425L279.786 260.508L279.833 260.527L279.842 260.531L279.843 260.532C283.916 262.251 288.611 260.344 290.33 256.271C292.05 252.199 290.142 247.504 286.07 245.784L283.07 252.89C286.07 245.784 286.069 245.784 286.068 245.784L286.067 245.783L286.061 245.781L286.044 245.774L285.982 245.748C285.93 245.725 285.853 245.693 285.754 245.652C285.557 245.57 285.27 245.451 284.903 245.299C284.168 244.997 283.112 244.566 281.807 244.044C279.199 243.003 275.583 241.595 271.548 240.13C263.727 237.291 253.495 233.921 246.115 232.95C237.827 231.86 220.46 230.703 210.516 231.207C198.739 231.805 187.14 233.193 178.527 234.422C174.21 235.039 170.617 235.618 168.096 236.045C166.835 236.259 165.84 236.435 165.156 236.558C164.814 236.62 164.549 236.668 164.367 236.702L164.157 236.741L164.099 236.752L164.083 236.755L164.078 236.756L164.076 236.756C164.075 236.756 164.074 236.756 165.55 244.54L164.074 236.756C159.731 237.58 156.878 241.768 157.701 246.111C158.525 250.454 162.712 253.307 167.055 252.484L167.056 252.484L167.064 252.483L167.104 252.475L167.279 252.443C167.437 252.413 167.677 252.369 167.994 252.312C168.628 252.198 169.567 252.032 170.77 251.828C173.175 251.421 176.629 250.863 180.789 250.27C189.13 249.079 200.209 247.759 211.326 247.195Z" fill="currentColor"/></svg>