<svg viewBox="0 0 472 406" fill="none" xmlns="http://www.w3.org/2000/svg"><path d="M192.354 263.699C192.354 263.699 110.988 218.699 110.988 210.266C110.988 201.832 327.965 88.3982 333.576 92.1483C339.188 95.8984 281.202 318.071 273.721 317.133C266.239 316.196 245.663 298.389 245.663 298.389M192.354 263.699L252.21 188.704M192.354 263.699C192.354 263.699 179.261 321.816 192.354 328.383C205.448 334.949 245.663 298.389 245.663 298.389M192.354 263.699L245.663 298.389" stroke="#5E7181" stroke-width="30" stroke-linecap="round"/><path d="M42.5842 368.79C12.472 347.398 12.4719 69.2943 42.5842 41.7896C72.6964 14.285 396.403 11.2288 426.515 41.7896C456.627 72.3505 464.155 344.342 426.515 368.79C388.875 393.239 72.6963 390.183 42.5842 368.79Z" stroke="#5E7181" stroke-width="40" stroke-linecap="round"/></svg>