<svg viewBox="0 0 472 406" fill="none" xmlns="http://www.w3.org/2000/svg"><path d="M42.5842 368.79C12.472 347.398 12.4719 69.2943 42.5842 41.7896C72.6964 14.285 396.403 11.2288 426.515 41.7896C456.627 72.3505 464.155 344.342 426.515 368.79C388.875 393.239 72.6963 390.183 42.5842 368.79Z" stroke="currentColor" stroke-width="40" stroke-linecap="round"/><path d="M200.529 155.792C215.529 139.292 244.571 138.157 264.529 148.449C290.029 161.599 301.467 240.173 267.967 257.449C260.697 261.198 246.94 263.013 238.029 262.792C222.475 262.406 209.164 253.792 209.164 253.792C209.164 253.792 189.664 237.222 200.529 217.57C219.481 183.292 295.061 188.574 323.5 217.57C340.881 235.292 346.967 289.557 307.467 315.292C267.967 341.026 214.933 335.165 182.529 315.292C106.967 268.949 127.967 135.449 169.029 101.293C210.09 67.1361 261.277 67.5468 301.53 95.0701C334.664 117.725 339.03 144.292 339.03 144.292" stroke="currentColor" stroke-width="30" stroke-linecap="square"/></svg>