<svg viewBox="0 0 472 406" fill="none" xmlns="http://www.w3.org/2000/svg"><path d="M42.5842 368.79C12.472 347.398 12.4719 69.2943 42.5842 41.7896C72.6964 14.285 396.403 11.2288 426.515 41.7896C456.627 72.3505 464.155 344.342 426.515 368.79C388.875 393.239 72.6963 390.183 42.5842 368.79Z" stroke="currentColor" stroke-width="40" stroke-linecap="round"/><path d="M323.85 142.675C323.85 142.675 311.045 143.114 302.35 135.175C290.85 124.675 276.8 101 276.8 101L264.65 101V231.5V246.8L263.35 263.175C263.35 263.175 262.424 269.783 259.35 274.7C257.1 278.3 255.038 282.906 251.15 286.85C249.328 288.7 248.019 290 246.2 291.35C244.381 292.7 244.85 292.7 242.15 294.5C239.45 296.3 239.9 296.037 237.2 297.65C235.4 298.726 233.157 299.808 231.8 300.35C229.949 301.091 228.428 301.53 226.4 302.15C224.484 302.737 222.517 303.063 220.55 303.5C217.853 304.1 215.49 304.452 212.9 304.645C210.877 304.796 208.716 304.85 206.15 304.85C203.679 304.85 200.721 304.456 198.099 303.95C195.874 303.522 193.44 303.014 192.2 302.6C190.992 302.198 189.875 301.902 188.15 301.25C186.861 300.764 185.483 300.036 184.1 299.45C182.569 298.803 181.031 298.037 179.6 297.313C178.086 296.546 176.692 295.75 175.55 294.95C173.682 293.643 171.578 291.868 169.7 290.183C166.716 287.504 164.3 285.05 164.3 285.05C164.3 285.05 162.594 283.06 160.7 280.597C159.225 278.679 157.635 276.474 156.65 274.7C155.701 272.991 154.652 271.23 153.85 269.175C153.015 267.036 152.431 265.057 151.7 263.45C151.196 262.342 150.712 260.129 150.297 258.05C150.072 256.925 149.868 255.708 149.691 254.45C149.462 252.828 149.28 251.139 149.16 249.5C149.057 248.09 149 245.815 149 244.55C149 241.395 149.141 239.832 149.464 237.35C149.553 236.673 149.725 235.911 149.9 235.1C150.055 234.38 150.164 233.621 150.35 232.85C150.494 232.254 150.656 231.65 150.8 231.05C150.947 230.442 151.12 229.837 151.25 229.25C151.45 228.35 151.7 227 152.6 224.75C153.359 222.884 154.44 220.17 155.3 218.45C156.509 216.032 157.984 213.681 159.341 211.7C161.521 208.522 163.4 206.3 163.4 206.3L168.35 201.35L173.3 197.3L178.7 193.7L182.75 191.45L187.7 189.65L192.2 188.3L196.7 186.95L203.45 186.05H209.3" stroke="currentColor" stroke-width="36" stroke-linecap="square"/></svg>