<svg viewBox="0 0 472 406" fill="none" xmlns="http://www.w3.org/2000/svg"><path d="M42.5842 368.79C12.472 347.398 12.4719 69.2943 42.5842 41.7896C72.6964 14.285 396.403 11.2288 426.515 41.7896C456.627 72.3505 464.155 344.342 426.515 368.79C388.875 393.239 72.6963 390.183 42.5842 368.79Z" stroke="currentColor" stroke-width="40" stroke-linecap="round"/><path d="M315.879 327.41L301.83 286.791C301.83 286.791 272.206 297.316 259.226 285.264C246.247 273.211 253.424 181.58 253.424 181.58H305.19V134.243H253.424V64H211.736C203.032 87.9733 209.446 116.834 156 140.504V181.58H188.373C188.373 181.58 175.699 302.519 214.332 327.41C268.775 362.487 315.879 327.41 315.879 327.41Z" fill="currentColor" stroke="currentColor" stroke-width="1.52702" stroke-linecap="square"/></svg>