<svg viewBox="0 0 472 406" fill="none" xmlns="http://www.w3.org/2000/svg"><path d="M42.5842 368.79C12.472 347.398 12.4719 69.2943 42.5842 41.7896C72.6964 14.285 396.403 11.2288 426.515 41.7896C456.627 72.3505 464.155 344.342 426.515 368.79C388.875 393.239 72.6963 390.183 42.5842 368.79Z" stroke="currentColor" stroke-width="40" stroke-linecap="round"/><path d="M120.987 122.225C109.989 140.265 109.989 240.486 120.987 253.515C131.986 266.544 215.974 253.515 215.974 253.515V300.619L269.967 253.515H315.961C333.958 253.515 349.956 218.437 349.956 199.395V95.1654C349.956 77.1256 159.982 83.1393 145.984 95.1654C131.986 107.192 131.986 104.185 120.987 122.225Z" stroke="currentColor" stroke-width="30" stroke-linecap="round"/><path d="M204.975 147.281V192.38" stroke="currentColor" stroke-width="30" stroke-linecap="round"/><path d="M273.965 148.283V193.382" stroke="currentColor" stroke-width="30" stroke-linecap="round"/></svg>