<svg viewBox="0 0 472 406" fill="none" xmlns="http://www.w3.org/2000/svg"><path d="M42.5842 368.79C12.472 347.398 12.4719 69.2943 42.5842 41.7896C72.6964 14.285 396.403 11.2288 426.515 41.7896C456.627 72.3505 464.155 344.342 426.515 368.79C388.875 393.239 72.6963 390.183 42.5842 368.79Z" stroke="currentColor" stroke-width="40" stroke-linecap="round"/><path fill-rule="evenodd" clip-rule="evenodd" d="M148.992 99.6878C149.958 98.7698 152.796 96.8172 158.753 94.5856C164.437 92.4559 171.763 90.512 180.474 88.8884C197.887 85.6434 219.236 83.9704 240.689 84.0004C262.165 84.0304 282.942 85.7658 299.245 88.9881C307.42 90.6037 313.933 92.4899 318.648 94.4489C322.579 96.0824 324.132 97.3054 324.479 97.5784C324.53 97.6185 324.555 97.6381 324.558 97.6355C324.558 97.635 324.558 97.6334 324.556 97.6308C325.242 98.5531 326.897 101.465 328.91 107.449C330.866 113.262 332.749 120.715 334.423 129.479C337.767 146.988 340.033 168.463 340.662 189.961C341.295 211.544 340.252 232.334 337.333 248.66C335.871 256.838 334.044 263.279 332.061 267.916C330.136 272.417 328.658 273.826 328.506 273.971C328.492 273.984 328.489 273.987 328.498 273.981C326.085 275.726 320.521 278.294 310.862 280.756C301.638 283.107 290.214 284.985 277.422 286.265C252.508 288.759 223.862 288.845 198.833 286.434L159.716 323.688V280.575C158.205 279.438 156.436 278.424 154.368 277.632C150.59 276.186 148.176 274.861 146.797 273.881C146.351 273.565 144.497 271.873 142.14 266.92C139.882 262.175 137.758 255.689 135.983 247.562C132.437 231.321 130.759 210.728 131.028 189.44C131.296 168.196 133.489 147.149 137.242 130.095C139.119 121.564 141.299 114.436 143.613 108.954C146.038 103.211 148.079 100.555 148.992 99.6878ZM172.907 324.553C171.543 326.032 170.184 327.507 168.849 328.934C168.522 329.284 168.196 329.631 167.872 329.974C161.442 336.792 155.683 342.266 152.716 341.688C148.758 340.917 148.599 331.996 148.996 322.256C149.018 321.712 149.042 321.166 149.067 320.619C149.123 319.406 149.184 318.186 149.245 316.974C149.749 306.959 150.226 297.462 147.216 296.31C142.448 294.484 138.393 292.444 135.217 290.188C100.717 265.688 105.217 113.688 135.217 85.188C165.216 56.6878 318.217 57.188 340.217 85.188C362.216 113.188 372.716 266.688 340.217 290.188C318.312 306.027 248.481 311.645 194.716 306.123C190.312 305.671 181.505 315.225 172.911 324.548L172.907 324.553Z" fill="currentColor"/><path d="M217.178 152.692C204.559 126.192 198.678 125.125 196.178 124.192C188.86 121.461 185.056 123.684 178.678 128.192C172.667 132.44 170.865 137.928 169.677 145.192C167.315 159.645 171.532 170.804 176.178 184.692C181.827 201.577 187.909 210.014 198.678 224.192C207.827 236.238 215.032 246.893 227.678 255.192C240.528 263.625 248.332 267.553 263.678 266.692C270.587 266.305 280.678 261.692 280.678 261.692C280.678 261.692 287.519 258.646 288.678 252.692C291.013 240.689 287.678 233.692 269.678 224.192C263.012 220.674 257.467 230.779 250.177 232.692C233.608 237.039 227.24 223.055 217.178 209.192C206.242 194.127 192.212 181.86 203.677 167.192C207.846 161.858 220.088 158.804 217.178 152.692Z" fill="currentColor"/><path d="M243 155C243 155 258.088 159.709 263 167.5C267.331 174.37 266.5 188 266.5 188" stroke="currentColor" stroke-width="10" stroke-linecap="round"/><path d="M250 136C250 136 271.77 144.247 278.858 157.894C285.107 169.927 283.908 193.8 283.908 193.8" stroke="currentColor" stroke-width="10" stroke-linecap="round"/><path d="M256 119C256 119 286.132 130.415 295.941 149.303C304.591 165.958 302.931 199 302.931 199" stroke="currentColor" stroke-width="10" stroke-linecap="round"/></svg>