<svg viewBox="0 0 472 406" fill="none" xmlns="http://www.w3.org/2000/svg"><path d="M42.5842 368.79C12.472 347.398 12.4719 69.2943 42.5842 41.7896C72.6964 14.285 396.403 11.2288 426.515 41.7896C456.627 72.3505 464.155 344.342 426.515 368.79C388.875 393.239 72.6963 390.183 42.5842 368.79Z" stroke="currentColor" stroke-width="40" stroke-linecap="round"/><path d="M100.068 160.275L86 141.582C86 141.582 148.823 70.495 183.703 76.8321C218.583 83.1693 226.098 251.789 257.51 236.972C288.921 222.156 330.435 111.846 257.51 141.582C257.51 141.582 272.734 67.1966 348.275 73.3633C361.506 74.4434 384.33 81.4979 385.853 109.785C390.863 202.863 266.567 341.998 213.765 332.362C160.963 322.727 162.698 154.686 127.432 145.629C114.897 142.41 100.068 160.275 100.068 160.275Z" fill="currentColor" stroke="currentColor" stroke-width="1.92708" stroke-linecap="square"/></svg>