<svg viewBox="0 0 472 406" fill="none" xmlns="http://www.w3.org/2000/svg"><path d="M42.5842 368.79C12.472 347.398 12.4719 69.2943 42.5842 41.7896C72.6964 14.285 396.403 11.2288 426.515 41.7896C456.627 72.3505 464.155 344.342 426.515 368.79C388.875 393.239 72.6963 390.183 42.5842 368.79Z" stroke="currentColor" stroke-width="40" stroke-linecap="round"/><path d="M75.5779 122.425C89.9293 117.492 137.917 117.94 140.159 122.425C142.401 126.91 179.625 214.184 195.321 198.668C199.86 194.182 207.311 145.297 195.321 130.948C191.022 125.801 179.625 124.219 179.625 124.219C179.625 124.219 186.959 115.827 192.183 113.905C209.674 107.473 241.963 109.417 257.661 116.594C273.358 123.771 252.726 190.174 266.63 198.668C280.533 207.162 318.206 123.77 323.587 120.182C328.969 116.594 366.642 120.182 391.308 120.182C415.974 120.182 339.732 209.433 341.975 217.504C344.217 225.575 404.726 276.701 397.587 287.016C390.447 297.331 326.727 298.676 320 291.502C313.272 284.328 282.775 242.169 272.46 252.484C262.145 262.799 263.49 285.672 259.903 291.502C256.315 297.332 210.57 297.781 179.625 279.393C148.68 261.005 61.2265 127.358 75.5779 122.425Z" fill="currentColor"/></svg>