<svg viewBox="0 0 472 406" fill="none" xmlns="http://www.w3.org/2000/svg"><path d="M42.5842 368.79C12.472 347.398 12.4719 69.2943 42.5842 41.7896C72.6964 14.285 396.403 11.2288 426.515 41.7896C456.627 72.3505 464.155 344.342 426.515 368.79C388.875 393.239 72.6963 390.183 42.5842 368.79Z" stroke="currentColor" stroke-width="40" stroke-linecap="round"/><path fill-rule="evenodd" clip-rule="evenodd" d="M293.772 177.092C291.926 176.965 290.059 176.9 288.175 176.9C249.775 176.9 218.646 203.891 218.646 237.187C218.646 246.451 221.056 255.227 225.362 263.069C218.426 264.541 211.177 265.321 203.718 265.321C183.757 265.321 165.302 259.731 150.321 250.258C148.505 249.11 141.657 253.482 134.822 257.846C127.873 262.282 120.938 266.71 119.316 265.321C117.571 263.827 121.258 256.388 124.92 249.001C128.446 241.887 131.948 234.822 130.547 233.168C119.516 220.141 113 204.061 113 186.661C113 143.218 153.616 108 203.718 108C242.638 108 275.833 129.251 288.712 159.101C291.177 164.813 292.897 170.839 293.772 177.092ZM178.455 178.048C185.431 178.048 191.086 172.393 191.086 165.417C191.086 158.44 185.431 152.785 178.455 152.785C171.479 152.785 165.823 158.44 165.823 165.417C165.823 172.393 171.479 178.048 178.455 178.048ZM246.206 165.417C246.206 172.393 240.551 178.048 233.575 178.048C226.598 178.048 220.943 172.393 220.943 165.417C220.943 158.44 226.598 152.785 233.575 152.785C240.551 152.785 246.206 158.44 246.206 165.417Z" fill="currentColor"/><path fill-rule="evenodd" clip-rule="evenodd" d="M360 238.335C360 251.144 355.393 263.02 347.538 272.785C346.319 274.301 349.308 279.893 352.315 285.516C355.45 291.38 358.603 297.278 357.021 298.623C355.338 300.053 348.926 296.936 342.527 293.826C336.369 290.833 330.222 287.845 328.312 288.921C317.423 295.058 304.427 298.623 290.472 298.623C252.072 298.623 220.943 271.631 220.943 238.335C220.943 205.04 252.072 178.048 290.472 178.048C328.871 178.048 360 205.04 360 238.335ZM280.657 221.111C280.657 225.867 276.801 229.723 272.044 229.723C267.288 229.723 263.432 225.867 263.432 221.111C263.432 216.354 267.288 212.498 272.044 212.498C276.801 212.498 280.657 216.354 280.657 221.111ZM314.532 229.723C319.289 229.723 323.145 225.867 323.145 221.111C323.145 216.354 319.289 212.498 314.532 212.498C309.776 212.498 305.92 216.354 305.92 221.111C305.92 225.867 309.776 229.723 314.532 229.723Z" fill="currentColor"/></svg>