<svg viewBox="0 0 472 406" fill="none" xmlns="http://www.w3.org/2000/svg"><path d="M237.178 160.692C224.559 134.192 218.678 133.125 216.178 132.192C208.86 129.461 205.056 131.684 198.678 136.192C192.667 140.44 190.865 145.928 189.677 153.192C187.315 167.645 191.532 178.804 196.178 192.692C201.827 209.577 207.909 218.014 218.678 232.192C227.827 244.238 235.032 254.893 247.678 263.192C260.528 271.625 268.332 275.553 283.678 274.692C290.587 274.305 300.678 269.692 300.678 269.692C300.678 269.692 307.519 266.646 308.678 260.692C311.013 248.689 307.678 241.692 289.678 232.192C283.012 228.674 277.467 238.779 270.177 240.692C253.608 245.039 247.24 231.055 237.178 217.192C226.242 202.127 212.212 189.86 223.677 175.192C227.846 169.858 240.088 166.804 237.178 160.692Z" fill="#5E7181"/><path d="M357.9 202C357.9 263.58 307.98 313.5 246.4 313.5C222.638 313.5 200.646 306.081 182.566 293.432C177.121 289.623 170.858 290.248 167.866 290.705C164.15 291.274 160.205 292.513 156.535 293.867C149.633 296.412 141.526 300.203 134.036 303.705C133.519 303.947 133.005 304.187 132.494 304.426C127.179 306.909 122.238 309.193 117.876 311.019C120.252 305.923 123.305 300.072 126.614 293.812C126.993 293.095 127.375 292.372 127.76 291.646C131.779 284.052 136.034 276.011 139.096 269.117C140.771 265.346 142.309 261.437 143.248 257.806C144.005 254.878 145.204 249.253 143 243.81C137.781 230.915 134.9 216.809 134.9 202C134.9 140.42 184.82 90.5 246.4 90.5C307.98 90.5 357.9 140.42 357.9 202ZM105.712 314.945C105.716 314.941 105.788 314.937 105.918 314.942C105.773 314.951 105.708 314.948 105.712 314.945ZM113.502 322.77C113.505 322.976 113.489 323.093 113.481 323.1C113.473 323.107 113.471 323.005 113.502 322.77Z" stroke="#5E7181" stroke-width="25"/><path d="M42.5842 368.79C12.472 347.398 12.4719 69.2943 42.5842 41.7896C72.6964 14.285 396.403 11.2288 426.515 41.7896C456.627 72.3505 464.155 344.342 426.515 368.79C388.875 393.239 72.6963 390.183 42.5842 368.79Z" stroke="#5E7181" stroke-width="40" stroke-linecap="round"/></svg>