<svg viewBox="0 0 59 52" fill="none" xmlns="http://www.w3.org/2000/svg"><path d="M5.32302 46.7238C1.559 44.0497 1.55899 9.28679 5.32302 5.8487C9.08705 2.41062 49.5503 2.0286 53.3144 5.8487C57.0784 9.66881 58.0194 43.6677 53.3144 46.7238C48.6093 49.7799 9.08704 49.3979 5.32302 46.7238Z" stroke="currentColor" stroke-width="5" stroke-linecap="round"/><path fill-rule="evenodd" clip-rule="evenodd" d="M29.2672 16.7182C27.9962 16.7182 26.2936 17.1413 26.2936 17.1413L25.4507 15.4019L22.2665 16.2246L19.5739 17.1413C19.5739 17.1413 18.3008 19.303 17.6306 20.7612C16.9768 22.1837 16.6601 23.0084 16.1789 24.4987L16.067 24.8444C15.6226 26.2154 15.338 27.0935 15.1253 28.6122C14.8389 30.6575 15.1253 33.9011 15.1253 33.9011L18.4501 35.711L22.2665 37.4505L23.7884 35.2879L21.3768 33.9011L22.997 32.8668C22.997 32.8668 24.6586 33.8436 26.0127 34.1832C27.7476 34.6182 28.7962 34.6845 30.5783 34.5357C31.8418 34.4303 32.5437 34.2511 33.7626 33.9011C34.878 33.5808 36.5488 32.8668 36.5488 32.8668L37.86 33.9011L35.0972 35.2879L36.5488 37.4505L40.7633 35.711L43.9007 33.5485C43.9007 33.5485 44.1108 30.5284 43.9007 28.6122C43.7219 26.982 43.5364 26.0668 43.0578 24.4987C42.5977 22.991 42.2355 22.173 41.5359 20.7612C40.8053 19.2869 39.3819 17.1413 39.3819 17.1413L36.5488 16.2246L33.3646 15.4019L32.5217 17.1413C32.5217 17.1413 30.4284 16.7182 29.2672 16.7182ZM27.4965 27.3031C27.4965 29.0328 26.2655 30.435 24.7469 30.435C23.2283 30.435 21.9973 29.0328 21.9973 27.3031C21.9973 25.5734 23.2283 24.1712 24.7469 24.1712C26.2655 24.1712 27.4965 25.5734 27.4965 27.3031ZM34.7457 30.435C36.2642 30.435 37.4953 29.0328 37.4953 27.3031C37.4953 25.5734 36.2642 24.1712 34.7457 24.1712C33.2271 24.1712 31.996 25.5734 31.996 27.3031C31.996 29.0328 33.2271 30.435 34.7457 30.435Z" fill="currentColor"/></svg>