<svg viewBox="0 0 59 52" fill="none" xmlns="http://www.w3.org/2000/svg"><path d="M5.32302 46.7238C1.559 44.0497 1.55899 9.28679 5.32302 5.8487C9.08705 2.41062 49.5503 2.0286 53.3144 5.8487C57.0784 9.66881 58.0194 43.6677 53.3144 46.7238C48.6093 49.7799 9.08704 49.3979 5.32302 46.7238Z" stroke="currentColor" stroke-width="5" stroke-linecap="round"/><path d="M22.1218 40.3318V35.9472M22.1218 35.9472C22.1218 35.9472 19.2303 37.7808 17.1225 36.4483C15.5633 35.4625 15.7055 34.1041 15.1228 33.0658C14.5401 32.0275 13.2013 30.9282 13.0071 30.8308C12.8129 30.7335 14.5725 31.9897 15.1228 32.3141C15.673 32.6386 16.3679 35.2435 17.6224 35.9472C19.4855 36.9921 22.1218 35.9472 22.1218 35.9472ZM22.1218 35.9472C22.1218 35.9472 22.2924 33.177 22.7468 32.3141C23.1551 31.5387 24.4015 28.8516 25.5668 28.8516C26.7321 28.8516 21.9659 28.0315 20.372 27.0525C19.2057 26.3362 18.6681 25.3302 18.2473 24.4217C17.8265 23.5132 17.6347 21.7084 18.4453 19.6044C19.0256 18.0983 20.372 16.2624 20.372 16.2624C20.372 16.2624 20.172 15.026 20.1286 14.1534C20.078 13.1364 20.5494 11.5252 20.8731 11.655C21.1968 11.7848 24.9964 14.1534 24.9964 14.1534C24.9964 14.1534 27.1817 13.4577 28.9981 13.4396C30.9395 13.4202 33.9184 14.1534 33.9184 14.1534C33.9184 14.1534 36.767 11.8172 37.0583 11.655C37.3496 11.4928 38.1904 13.0902 38.6444 14.1534C38.9814 14.9422 39.2595 16.2624 39.2595 16.2624C39.2595 16.2624 41.0066 18.1186 41.5578 19.6044C42.3421 21.7184 42.207 23.8936 41.8691 24.6723C41.5312 25.451 39.9332 27.1922 38.9945 27.6789C38.0558 28.1656 33.3681 28.8516 33.9184 28.8516C34.4687 28.8516 36.6051 31.1596 37.0583 31.9383C37.5115 32.717 37.7447 35.9472 37.7447 35.9472V40.3318" stroke="currentColor" stroke-width="3.75" stroke-linecap="round"/></svg>