<svg viewBox="0 0 59 52" fill="none" xmlns="http://www.w3.org/2000/svg"><path d="M24.0438 33.5876C24.0438 33.5876 13.873 27.9625 13.873 26.9083C13.873 25.8542 40.9951 11.6749 41.6965 12.1437C42.398 12.6125 35.1498 40.3841 34.2146 40.2668C33.2793 40.1496 30.7074 37.9238 30.7074 37.9238M24.0438 33.5876L31.5258 24.2132M24.0438 33.5876C24.0438 33.5876 22.4071 40.8522 24.0438 41.673C25.6805 42.4938 30.7074 37.9238 30.7074 37.9238M24.0438 33.5876L30.7074 37.9238" stroke="currentColor" stroke-width="3.75" stroke-linecap="round"/><path d="M5.32302 46.7238C1.559 44.0497 1.55899 9.28679 5.32302 5.8487C9.08705 2.41062 49.5503 2.0286 53.3144 5.8487C57.0784 9.66881 58.0194 43.6677 53.3144 46.7238C48.6093 49.7799 9.08704 49.3979 5.32302 46.7238Z" stroke="currentColor" stroke-width="5" stroke-linecap="round"/></svg>