<svg viewBox="0 0 59 52" fill="none" xmlns="http://www.w3.org/2000/svg"><path d="M5.32302 46.7238C1.559 44.0497 1.55899 9.28679 5.32302 5.8487C9.08705 2.41062 49.5503 2.0286 53.3144 5.8487C57.0784 9.66881 58.0194 43.6677 53.3144 46.7238C48.6093 49.7799 9.08704 49.3979 5.32302 46.7238Z" stroke="currentColor" stroke-width="5" stroke-linecap="round"/><path d="M15.1229 15.9033C13.7481 18.1583 13.7481 30.6858 15.1229 32.3145C16.4977 33.9431 26.9963 32.3145 26.9963 32.3145V38.2025L33.7454 32.3145H39.4946C41.7443 32.3145 43.744 27.9298 43.744 25.5496V12.5208C43.744 10.2658 19.9972 11.0176 18.2475 12.5208C16.4977 14.0241 16.4977 13.6483 15.1229 15.9033Z" stroke="currentColor" stroke-width="3.75" stroke-linecap="round"/><path d="M25.6211 19.0352V24.6726" stroke="currentColor" stroke-width="3.75" stroke-linecap="round"/><path d="M34.2461 19.1602V24.7976" stroke="currentColor" stroke-width="3.75" stroke-linecap="round"/></svg>